<svg width="1182" height="683" viewBox="0 0 1182 683" fill="none" xmlns="http://www.w3.org/2000/svg">
<g clip-path="url(#clip0_57_145)">
<rect width="1182" height="683" fill="white"/>
<rect x="0.5" y="0.5" width="393" height="466" stroke="black"/>
<rect x="394.5" y="0.5" width="393" height="355" stroke="black"/>
<rect x="788.5" y="0.5" width="393" height="466" stroke="black"/>
<path d="M518 356.312L663.529 356.312V351.765L518 351.765V356.312Z" fill="white" stroke="black"/>
<path d="M590.765 356.312V351.765M590.765 351.765C590.765 311.58 623.345 279 663.529 279V351.765M590.765 351.765C590.765 311.58 558.184 279 518 279V351.765" stroke="black" stroke-miterlimit="10"/>
<path d="M518 683.312H663.529V678.765H518V683.312Z" fill="white" stroke="black"/>
<path d="M590.765 683.312V678.765M590.765 678.765C590.765 638.58 623.345 606 663.529 606V678.765M590.765 678.765C590.765 638.58 558.184 606 518 606V678.765" stroke="black" stroke-miterlimit="10"/>
<path d="M788 465.545L788.971 392L793.567 392.061L792.597 465.606L788 465.545Z" fill="white" stroke="black"/>
<path d="M793.568 392.061C834.183 392.597 866.678 425.961 866.142 466.576L792.597 465.606" stroke="black" stroke-miterlimit="10"/>
<path d="M764 468.032L764.971 541.577L769.567 541.516L768.597 467.971L764 468.032Z" fill="white" stroke="black"/>
<path d="M769.568 541.516C810.183 540.98 842.678 507.615 842.142 467L768.597 467.971" stroke="black" stroke-miterlimit="10"/>
<path d="M394.63 465.064V391.512H390.034V465.064H394.63Z" fill="white" stroke="black"/>
<path d="M390.033 391.512C349.415 391.512 316.482 424.445 316.482 465.064H390.033" stroke="black" stroke-miterlimit="10"/>
<path d="M185.148 575.552V502H180.551V575.552H185.148Z" fill="white" stroke="black"/>
<path d="M180.551 502C139.933 502 107 534.933 107 575.552H180.551" stroke="black" stroke-miterlimit="10"/>
<rect x="0.5" y="467.5" width="184" height="108" stroke="black"/>
<rect x="764.5" y="467.5" width="417" height="215" stroke="black"/>
<g opacity="0.3">
<rect width="16" height="94" transform="matrix(-1 0 0 1 297 588.5)" stroke="black"/>
<rect width="16" height="94" transform="matrix(-1 0 0 1 281 588.5)" stroke="black"/>
<rect width="16" height="94" transform="matrix(-1 0 0 1 265 588.5)" stroke="black"/>
<rect width="16" height="94" transform="matrix(-1 0 0 1 249 588.5)" stroke="black"/>
<rect width="16" height="94" transform="matrix(-1 0 0 1 233 588.5)" stroke="black"/>
<rect width="16" height="94" transform="matrix(-1 0 0 1 217 588.5)" stroke="black"/>
<rect width="16" height="94" transform="matrix(-1 0 0 1 201 588.5)" stroke="black"/>
<rect width="16" height="94" transform="matrix(-1 0 0 1 185 588.5)" stroke="black"/>
<rect width="16" height="94" transform="matrix(-1 0 0 1 169 588.5)" stroke="black"/>
<path d="M169 575.5H153V550.5" stroke="black"/>
<rect width="16" height="94" transform="matrix(-1 0 0 1 153 588.5)" stroke="black"/>
<path d="M153 552V575.5H137V528.5" stroke="black"/>
<rect width="16" height="94" transform="matrix(-1 0 0 1 137 588.5)" stroke="black"/>
<path d="M137 528.5L137 575.5H121L121 504" stroke="black"/>
<rect width="16" height="94" transform="matrix(-1 0 0 1 121 588.5)" stroke="black"/>
<path d="M105 481.5L105 575.5H121L121 503.5" stroke="black"/>
<rect width="16" height="94" transform="matrix(-1 0 0 1 121 588.5)" stroke="black"/>
<rect width="16" height="94" transform="matrix(-1 0 0 1 105 481.5)" stroke="black"/>
<path d="M105 481.5L105 575.5H121L121 504.5" stroke="black"/>
<path d="M169.5 575L105 481" stroke="black" stroke-dasharray="10 10"/>
<path d="M80.6522 482H3.57628e-07L3.57628e-07 683H105L105 589H80.6522L80.6522 482Z" stroke="black"/>
<path d="M61 643.5V644.5H60V643.5H61ZM61 528.5H60V527.5H61V528.5ZM139.179 528.5L129.179 534.274V522.726L139.179 528.5ZM352.5 643.5V644.5L61 644.5V643.5V642.5L352.5 642.5V643.5ZM61 643.5H60L60 528.5H61H62L62 643.5H61ZM61 528.5V527.5H130.179V528.5V529.5H61V528.5Z" fill="black"/>
</g>
</g>
<defs>
<clipPath id="clip0_57_145">
<rect width="1182" height="683" fill="white"/>
</clipPath>
</defs>
</svg>
