<?xml version="1.0" encoding="UTF-8"?>
<svg id="Layer_1" xmlns="http://www.w3.org/2000/svg" version="1.1" viewBox="0 0 1188 683">
  <!-- Generator: Adobe Illustrator 29.5.1, SVG Export Plug-In . SVG Version: 2.1.0 Build 141)  -->
  <defs>
    <style>
      .st0 {
        fill: none;
        stroke-linecap: square;
        stroke-miterlimit: 12.5;
        stroke-width: 2.69px;
      }

      .st0, .st1, .st2, .st3 {
        stroke: #000;
      }

      .st1 {
        fill: #7a7a7a;
      }

      .st2 {
        stroke-miterlimit: 10;
      }

      .st2, .st4 {
        fill: #fff;
      }

      .st3 {
        fill: #bcbcbc;
      }

      .st5, .st4 {
        isolation: isolate;
      }

      .st4 {
        font-family: MyriadPro-Regular, 'Myriad Pro';
        font-size: 19.73px;
      }
    </style>
  </defs>
  <rect class="st2" width="1188" height="683"/>
  <rect class="st3" x="756" y="467" width="432" height="216"/>
  <g>
    <rect class="st1" y="575" width="29.83" height="108"/>
    <rect class="st1" x="29.83" y="575" width="29.83" height="108"/>
    <rect class="st1" x="59.67" y="575" width="29.83" height="108"/>
    <rect class="st1" x="89.5" y="575" width="29.83" height="108"/>
    <rect class="st1" x="119.33" y="575" width="29.83" height="108"/>
    <rect class="st1" x="149.17" y="575" width="29.83" height="108"/>
    <rect class="st1" x="179" y="575" width="29.83" height="108"/>
    <rect class="st1" x="208.83" y="575" width="29.83" height="108"/>
    <rect class="st1" x="238.67" y="575" width="29.83" height="108"/>
    <rect class="st1" x="268.5" y="575" width="29.83" height="108"/>
    <rect class="st1" x="298.33" y="575" width="29.83" height="108"/>
    <rect class="st1" x="328.17" y="575" width="29.83" height="108"/>
  </g>
  <rect class="st3" y="467" width="286" height="108"/>
  <rect class="st3" width="394" height="467"/>
  <rect class="st3" x="394" width="396" height="395"/>
  <polygon class="st3" points="790 467 1188 467 1188 0 790 0 790 391.27 790 467"/>
  <g>
    <circle cx="125.3" cy="515.66" r="3.66"/>
    <path d="M124.79,542.53v12.73c-.02,2.32-3.46,2.32-3.49,0v-12.73h-4.5l4.84-17.01h-.79l-2.81,9.69c-.71,2.14-3.61,1.28-2.93-1.02l3.15-10.48c.36-1.2,1.88-3.33,4.5-3.38h5.07c2.55.05,4.07,2.2,4.5,3.38l3.15,10.48c.64,2.28-2.24,3.21-2.93,1.02l-2.81-9.69h-.9l4.96,17.01h-4.62v12.73c.04,2.32-3.39,2.3-3.38,0v-12.73h-1.02.01,0Z"/>
    <circle cx="155.27" cy="515.66" r="3.66"/>
    <path d="M151.38,520.34c-2.81,0-4.62,2.44-4.62,4.84v11.27c-.02,2.2,3.15,2.2,3.15,0v-10.36h.79v28.62c-.05,2.99,4.17,2.91,4.17,0v-16.67h.67v16.67c.05,2.91,4.3,2.99,4.28,0v-28.62h.79v10.36c-.04,2.22,3.12,2.22,3.15,0v-11.27c-.04-2.41-1.92-4.8-4.73-4.84h-7.66.01Z"/>
    <rect x="138.42" y="512.45" width="4.17" height="44.27"/>
  </g>
  <path id="Pintu" class="st0" d="M790,398.23c37.32,0,67.57,30.25,67.57,67.55h-67.57v-67.55h0Z"/>
  <path id="Pintu1" class="st0" d="M520,327.45c37.32,0,67.57,30.25,67.57,67.55h-67.57v-67.55h0Z"/>
  <path id="Pintu2" class="st0" d="M601,395c0-37.32,30.25-67.57,67.55-67.57v67.57h-67.55Z"/>
  <path id="Pintu3" class="st0" d="M218.45,548c0-37.32,30.25-67.57,67.55-67.57v67.57h-67.55Z"/>
  <path id="Pintu4" class="st0" d="M326.45,467c0-37.32,30.25-67.57,67.55-67.57v67.57h-67.55Z"/>
  <path id="Pintu5" class="st0" d="M520,615.45c37.32,0,67.57,30.25,67.57,67.55h-67.57v-67.55h0Z"/>
  <path id="Pintu6" class="st0" d="M601,683c0-37.32,30.25-67.57,67.55-67.57v67.57h-67.55Z"/>
  <path d="M151.1,665.31l.27-.25.03-6.54.02-6.54h50.99c55.6,0,51.61.04,51.88-.52.15-.33.16-27.66,0-27.99-.06-.13-.26-.3-.45-.39-.31-.12-5.53-.14-51.37-.14h-51.04l-.02-6.54-.03-6.54-.27-.25c-.33-.29-.95-.33-1.37-.08-.16.09-8.5,5.74-18.55,12.56s-19.11,12.97-20.17,13.67c-1.03.71-1.98,1.41-2.08,1.57-.22.3-.18.61.09.9.13.14,40.13,26.83,40.7,27.17.42.25,1.04.21,1.37-.08h0Z"/>
  <g class="st5">
    <g class="st5">
      <g class="st5">
        <text class="st4" transform="translate(183.39 643.6) scale(1.2 1)"><tspan x="0" y="0">UP</tspan></text>
      </g>
    </g>
  </g>
  <path id="Pintu7" class="st0" d="M823.77,467c0,37.32-30.25,67.57-67.55,67.57v-67.57h67.55Z"/>
</svg>