<?xml version="1.0" encoding="UTF-8"?>
<svg id="Layer_1" xmlns="http://www.w3.org/2000/svg" version="1.1" viewBox="0 0 1200 800">
  <!-- Generator: Adobe Illustrator 29.5.1, SVG Export Plug-In . SVG Version: 2.1.0 Build 141)  -->
  <defs>
    <style>
      .st0 {
        fill: none;
        stroke-linecap: square;
        stroke-miterlimit: 12.5;
        stroke-width: 2.69px;
      }

      .st0, .st1, .st2 {
        stroke: #000;
      }

      .st1 {
        fill: #7a7a7a;
      }

      .st2 {
        fill: #bcbcbc;
      }
    </style>
  </defs>
  <rect class="st2" x="849" y="508" width="351" height="292"/>
  <rect class="st1" y="658" width="31" height="142"/>
  <rect class="st1" x="31" y="658" width="31" height="142"/>
  <rect class="st1" x="62" y="658" width="31" height="142"/>
  <rect class="st1" x="93" y="658" width="31" height="142"/>
  <rect class="st1" x="124" y="658" width="31" height="142"/>
  <rect class="st1" x="155" y="658" width="31" height="142"/>
  <rect class="st1" x="186" y="658" width="31" height="142"/>
  <rect class="st1" x="217" y="658" width="31" height="142"/>
  <rect class="st1" x="248" y="658" width="31" height="142"/>
  <rect class="st1" x="279" y="658" width="31" height="142"/>
  <rect class="st1" x="310" y="658" width="31" height="142"/>
  <rect class="st1" x="341" y="658" width="31" height="142"/>
  <rect class="st2" y="508" width="295.85" height="149.99"/>
  <rect class="st2" width="365.23" height="508.31"/>
  <rect class="st2" x="365.23" width="535.77" height="433"/>
  <polygon class="st2" points="901 509 1200 509 1200 0 901 0 901 426.46 901 509"/>
  <circle cx="125.54" cy="585.76" r="4.51"/>
  <path d="M124.92,618.85v15.69c-.02,2.85-4.27,2.85-4.3,0v-15.69h-5.55l5.96-20.95h-.97l-3.47,11.94c-.87,2.64-4.45,1.57-3.61-1.25l3.88-12.91c.44-1.48,2.31-4.1,5.55-4.16h6.25c3.14.07,5.02,2.7,5.55,4.16l3.88,12.91c.79,2.81-2.76,3.96-3.61,1.25l-3.47-11.94h-1.11l6.11,20.95h-5.69v15.69c.04,2.85-4.18,2.84-4.16,0v-15.69h-1.25.01Z"/>
  <circle cx="162.47" cy="585.76" r="4.51"/>
  <path d="M157.67,591.51c-3.47,0-5.69,3-5.69,5.96v13.88c-.03,2.71,3.88,2.71,3.88,0v-12.77h.97v35.25c-.06,3.68,5.14,3.58,5.13,0v-20.54h.83v20.54c.07,3.58,5.3,3.68,5.28,0v-35.25h.97v12.77c-.04,2.73,3.84,2.73,3.88,0v-13.88c-.05-2.96-2.36-5.91-5.83-5.96h-9.44.01Z"/>
  <rect x="141.71" y="581.8" width="5.13" height="54.54"/>
  <path id="Pintu" class="st0" d="M901,440.75c37.32,0,67.57,30.25,67.57,67.55h-67.57v-67.55h0Z"/>
  <path id="Pintu1" data-name="Pintu" class="st0" d="M583.65,365.45c37.32,0,67.57,30.25,67.57,67.55h-67.57v-67.55h0Z"/>
  <path id="Pintu2" data-name="Pintu" class="st0" d="M662.23,433.78c0-37.32,30.25-67.57,67.55-67.57v67.57h-67.55Z"/>
  <path id="Pintu3" data-name="Pintu" class="st0" d="M228.3,647.88c0-37.32,30.25-67.57,67.55-67.57v67.57h-67.55Z"/>
  <path id="Pintu4" data-name="Pintu" class="st0" d="M296.68,508.31c0-37.32,30.25-67.57,67.55-67.57v67.57h-67.55Z"/>
  <path id="Pintu5" data-name="Pintu" class="st0" d="M559.72,733.82c37.32,0,67.57,30.25,67.57,67.55h-67.57v-67.55h0Z"/>
  <path id="Pintu6" data-name="Pintu" class="st0" d="M646.65,801.38c0-37.32,30.25-67.57,67.55-67.57v67.57h-67.55Z"/>
</svg>