<?xml version="1.0" encoding="UTF-8"?>
<svg id="Layer_1" xmlns="http://www.w3.org/2000/svg" version="1.1" viewBox="0 0 130 50">
  <!-- Generator: Adobe Illustrator 29.5.1, SVG Export Plug-In . SVG Version: 2.1.0 Build 141)  -->
  <defs>
    <style>
      .st0 {
        fill: #484849;
      }

      .st1 {
        font-size: 8.21px;
      }

      .st1, .st2, .st3, .st4 {
        fill: #ee8422;
      }

      .st1, .st5, .st3, .st6, .st4 {
        isolation: isolate;
      }

      .st1, .st3, .st6, .st4 {
        font-family: Impact, Impact;
      }

      .st7 {
        fill: #020202;
      }

      .st8 {
        fill: #c8c7c6;
      }

      .st8, .st9, .st10 {
        stroke: #020202;
        stroke-miterlimit: 10;
        stroke-width: .75px;
      }

      .st9 {
        fill: #71cddd;
      }

      .st10 {
        fill: #24b34b;
      }

      .st3, .st6 {
        font-size: 10.89px;
      }

      .st6 {
        fill: #484848;
      }

      .st11 {
        fill: #f5eb28;
      }

      .st4 {
        font-size: 9.27px;
      }
    </style>
  </defs>
  <g id="Layer_2">
    <path class="st0" d="M58.57,1v47.31c0,.32.12.57.28.57h.7c.16,0,.28-.26.28-.57V1c0-.32-.12-.57-.28-.57h-.7c-.16,0-.28.26-.28.57Z"/>
    <g class="st5">
      <g class="st5">
        <g class="st5">
          <text class="st6" transform="translate(70.68 17.66)"><tspan x="0" y="0">Polnep</tspan></text>
        </g>
      </g>
      <g class="st5">
        <g class="st5">
          <text class="st3" transform="translate(71.07 29.39)"><tspan x="0" y="0">Interactive</tspan></text>
        </g>
      </g>
      <g class="st5">
        <g class="st5">
          <text class="st6" transform="translate(71.1 41.6)"><tspan x="0" y="0">Map</tspan></text>
        </g>
      </g>
    </g>
    <path class="st10" d="M12.28,36.62l2.2-12.86c.06-.36.28-.67.6-.85l6.09-3.42c.36-.2.81-.2,1.17,0l6.15,3.39c.36.2.82.2,1.18,0l5.96-3.37c.36-.2.81-.21,1.17,0l6.2,3.36c.32.18.55.49.61.85l2.33,13.04c.17.94-.77,1.69-1.65,1.33l-6.36-2.63c-.3-.12-.65-.12-.95,0l-7.32,3.25c-.31.13-.66.14-.97,0l-7.6-3.3c-.3-.13-.64-.13-.94,0l-6.23,2.56c-.88.36-1.81-.38-1.65-1.32h0v-.02Z"/>
    <path class="st8" d="M13.42,29.92l1.06-6.16c.06-.36.28-.67.6-.85l6.09-3.42c.36-.2.81-.2,1.17,0l6.15,3.39c.36.2.82.2,1.18,0l-.26,4.52c-1.75.79-5.5-1.86-8.03-1.41-2.24.4-3.84,1.88-5.28,2.72-1.4.82-2.73,1.42-2.7,1.23h0v-.02Z"/>
    <path class="st9" d="M29.11,23.02l6.52-3.53c.36-.2.81-.21,1.17,0l6.2,3.36c.32.18.55.49.61.85l2.33,13.04c.17.94-.77,1.69-1.65,1.33l-6.36-2.63c-.3-.12-8.12,2.91-8.42,3.05,0,0-.66-15.3-.4-15.45h0Z"/>
    <polygon class="st11" points="13.85 29.48 21.25 25.04 29.08 27.01 29.39 23.09 29.92 22.78 29.92 28.57 29.05 28.26 25.03 27.38 24.28 36.44 23.41 36.02 24.04 27.17 21.23 26.5 13.63 30.97 13.85 29.48"/>
    <polygon class="st7" points="21.67 19.33 21.09 35.39 20.68 35.29 21.67 19.33"/>
    <polygon class="st7" points="36.21 19.33 37.48 35.33 36.98 35.43 36.21 19.33"/>
    <polygon class="st7" points="29.11 23.02 29.11 38.78 29.41 38.76 29.11 23.02"/>
    <path class="st2" d="M22.75,8.82c-3.1,0-5.63,2.52-5.63,5.63,0,1.59-.22,10.93.83,11.95,1.01.98,3.27-6.33,4.8-6.33,3.1,0,5.63-2.52,5.63-5.63s-2.52-5.63-5.63-5.63h0ZM22.74,17.06c-1.19,0-2.16-.97-2.16-2.16s.97-2.16,2.16-2.16,2.16.97,2.16,2.16-.97,2.16-2.16,2.16Z"/>
    <g class="st5">
      <g class="st5">
        <g class="st5">
          <text class="st1" transform="translate(22.41 25.55)"><tspan x="0" y="0">oint</tspan></text>
        </g>
      </g>
    </g>
    <g class="st5">
      <g class="st5">
        <g class="st5">
          <text class="st4" transform="translate(29.67 34.77)"><tspan x="0" y="0">Map</tspan></text>
        </g>
      </g>
    </g>
  </g>
</svg>