<?xml version="1.0" encoding="utf-8" standalone="no"?>
<!DOCTYPE svg PUBLIC "-//W3C//DTD SVG 1.1//EN" "http://www.w3.org/Graphics/SVG/1.1/DTD/svg11.dtd">
<svg version="1.1" xmlns="http://www.w3.org/2000/svg" xmlns:xlink="http://www.w3.org/1999/xlink" width="1191pt" height="842pt" viewBox="0 0 1191 842" xml:space="preserve" enable-background="new 0 0 1191 842">
<g transform="scale(0.24,0.24)">
<g>
	<rect x="0" y="0" width="4960.62" height="3507.867" fill="#FFFFFF" fill-opacity="1" />
</g>
<g id="Map_Frame">
<g id="Polnep">
<clipPath id="cp_2">
<path d="M3959.0844 2751.9937 L3959.0844 426.22987 L644.87089 426.22987 L644.87089 2751.9937 Z " />
</clipPath>
<g clip-path="url(#cp_2)">
<g transform="matrix(4.1666667 0 0 -4.1666667 2301.9777 1589.1118)">
<path d="M230.38735 81.504125 L222.20633 71.888353 L216.51618 76.729484 L224.6972 86.345256 L230.38735 81.504125 Z "  fill="#828282" fill-rule="evenodd" stroke="#000000" fill-opacity="0" stroke-opacity="1"  stroke-width="1" stroke-linecap="round" stroke-linejoin="round" stroke-miterlimit="10" />
</g>
</g>
<g clip-path="url(#cp_2)">
<g transform="matrix(4.1666667 0 0 -4.1666667 2301.9777 1589.1118)">
<path d="M216.51618 76.729484 L200.90513 89.767281 L209.19455 99.69277 L224.8056 86.654973 L216.51618 76.729484 Z "  fill="#828282" fill-rule="evenodd" stroke="#000000" fill-opacity="0" stroke-opacity="1"  stroke-width="1" stroke-linecap="round" stroke-linejoin="round" stroke-miterlimit="10" />
</g>
</g>
<g clip-path="url(#cp_2)">
<g transform="matrix(4.1666667 0 0 -4.1666667 2301.9777 1589.1118)">
<path d="M215.06207 63.491172 L202.74258 49.011145 L182.65698 66.099812 L194.97648 80.579839 L215.06207 63.491172 Z "  fill="#828282" fill-rule="evenodd" stroke="#000000" fill-opacity="0" stroke-opacity="1"  stroke-width="1" stroke-linecap="round" stroke-linejoin="round" stroke-miterlimit="10" />
</g>
</g>
<g clip-path="url(#cp_2)">
<g transform="matrix(4.1666667 0 0 -4.1666667 2301.9777 1589.1118)">
<path d="M169.10903 9.4791075 L163.51581 14.237779 L169.13194 20.838842 L174.72516 16.080171 L169.10903 9.4791075 Z "  fill="#828282" fill-rule="evenodd" stroke="#000000" fill-opacity="0" stroke-opacity="1"  stroke-width="1" stroke-linecap="round" stroke-linejoin="round" stroke-miterlimit="10" />
</g>
</g>
<g clip-path="url(#cp_2)">
<g transform="matrix(4.1666667 0 0 -4.1666667 2301.9777 1589.1118)">
<path d="M153.37047 -4.1878115 L138.7357 8.2633379 L150.06908 21.584317 L164.70386 9.1331677 L153.37047 -4.1878115 Z "  fill="#828282" fill-rule="evenodd" stroke="#000000" fill-opacity="0" stroke-opacity="1"  stroke-width="1" stroke-linecap="round" stroke-linejoin="round" stroke-miterlimit="10" />
</g>
</g>
<g clip-path="url(#cp_2)">
<g transform="matrix(4.1666667 0 0 -4.1666667 2301.9777 1589.1118)">
<path d="M122.9125 -39.651112 L112.75109 -31.005859 L143.04311 4.598631 L153.20452 -4.0466223 L122.9125 -39.651112 Z "  fill="#828282" fill-rule="evenodd" stroke="#000000" fill-opacity="0" stroke-opacity="1"  stroke-width="1" stroke-linecap="round" stroke-linejoin="round" stroke-miterlimit="10" />
</g>
</g>
<g clip-path="url(#cp_2)">
<g transform="matrix(4.1666667 0 0 -4.1666667 2301.9777 1589.1118)">
<path d="M104.99828 -65.875083 L90.681139 -82.703096 L75.628101 -69.89609 L89.945242 -53.068077 L104.99828 -65.875083 Z "  fill="#828282" fill-rule="evenodd" stroke="#000000" fill-opacity="0" stroke-opacity="1"  stroke-width="1" stroke-linecap="round" stroke-linejoin="round" stroke-miterlimit="10" />
</g>
</g>
<g clip-path="url(#cp_2)">
<g transform="matrix(4.1666667 0 0 -4.1666667 2301.9777 1589.1118)">
<path d="M90.681139 -82.703096 L35.279076 -147.82131 L31.432975 -144.54908 L19.044242 -134.00884 L0.015658119 -117.81947 L55.417721 -52.701257 L74.446305 -68.890627 L86.835038 -79.430863 L90.681139 -82.703096 Z "  fill="#828282" fill-rule="evenodd" stroke="#000000" fill-opacity="0" stroke-opacity="1"  stroke-width="1" stroke-linecap="round" stroke-linejoin="round" stroke-miterlimit="10" />
</g>
</g>
<g clip-path="url(#cp_2)">
<g transform="matrix(4.1666667 0 0 -4.1666667 2301.9777 1589.1118)">
<path d="M0.015658119 -117.81947 L24.92328 -139.01068 L16.948586 -148.38394 L-7.9590361 -127.19273 L0.015658119 -117.81947 Z "  fill="#828282" fill-rule="evenodd" stroke="#000000" fill-opacity="0" stroke-opacity="1"  stroke-width="1" stroke-linecap="round" stroke-linejoin="round" stroke-miterlimit="10" />
</g>
</g>
<g clip-path="url(#cp_2)">
<g transform="matrix(4.1666667 0 0 -4.1666667 2301.9777 1589.1118)">
<path d="M-65.2807 -198.34925 L-91.001119 -176.46652 L-39.241577 -115.62964 L-13.521158 -137.51237 L-65.2807 -198.34925 Z "  fill="#828282" fill-rule="evenodd" stroke="#000000" fill-opacity="0" stroke-opacity="1"  stroke-width="1" stroke-linecap="round" stroke-linejoin="round" stroke-miterlimit="10" />
</g>
</g>
<g clip-path="url(#cp_2)">
<g transform="matrix(4.1666667 0 0 -4.1666667 2301.9777 1589.1118)">
<path d="M-91.261846 -222.91302 L-77.601056 -206.85647 L-63.369667 -218.96442 L-77.030457 -235.02098 L-91.261846 -222.91302 Z "  fill="#828282" fill-rule="evenodd" stroke="#000000" fill-opacity="0" stroke-opacity="1"  stroke-width="1" stroke-linecap="round" stroke-linejoin="round" stroke-miterlimit="10" />
</g>
</g>
<g clip-path="url(#cp_2)">
<g transform="matrix(4.1666667 0 0 -4.1666667 2301.9777 1589.1118)">
<path d="M-65.686396 -221.68745 L-52.046459 -233.2922 L-58.544049 -240.92931 L-72.183986 -229.32456 L-65.686396 -221.68745 Z "  fill="#828282" fill-rule="evenodd" stroke="#000000" fill-opacity="0" stroke-opacity="1"  stroke-width="1" stroke-linecap="round" stroke-linejoin="round" stroke-miterlimit="10" />
</g>
</g>
<g clip-path="url(#cp_2)">
<g transform="matrix(4.1666667 0 0 -4.1666667 2301.9777 1589.1118)">
<path d="M-186.38937 -141.97928 L-170.07206 -122.80032 L-158.55082 -132.6025 L-174.86813 -151.78146 L-186.38937 -141.97928 Z "  fill="#828282" fill-rule="evenodd" stroke="#000000" fill-opacity="0" stroke-opacity="1"  stroke-width="1" stroke-linecap="round" stroke-linejoin="round" stroke-miterlimit="10" />
</g>
</g>
<g clip-path="url(#cp_2)">
<g transform="matrix(4.1666667 0 0 -4.1666667 2301.9777 1589.1118)">
<path d="M-199.34424 -130.95738 L-183.02693 -111.77842 L-170.07206 -122.80032 L-186.38937 -141.97928 L-199.34424 -130.95738 Z "  fill="#828282" fill-rule="evenodd" stroke="#000000" fill-opacity="0" stroke-opacity="1"  stroke-width="1" stroke-linecap="round" stroke-linejoin="round" stroke-miterlimit="10" />
</g>
</g>
<g clip-path="url(#cp_2)">
<g transform="matrix(4.1666667 0 0 -4.1666667 2301.9777 1589.1118)">
<path d="M-65.725923 -146.75868 L-136.92296 -86.184802 L-111.28265 -56.047814 L-40.08561 -116.62169 L-65.725923 -146.75868 Z "  fill="#828282" fill-rule="evenodd" stroke="#000000" fill-opacity="0" stroke-opacity="1"  stroke-width="1" stroke-linecap="round" stroke-linejoin="round" stroke-miterlimit="10" />
</g>
</g>
<g clip-path="url(#cp_2)">
<g transform="matrix(4.1666667 0 0 -4.1666667 2301.9777 1589.1118)">
<path d="M-67.999868 -144.82403 L-73.859057 -151.71077 L-86.062552 -141.32813 L-80.203364 -134.44139 L-67.999868 -144.82403 Z "  fill="#828282" fill-rule="evenodd" stroke="#000000" fill-opacity="0" stroke-opacity="1"  stroke-width="1" stroke-linecap="round" stroke-linejoin="round" stroke-miterlimit="10" />
</g>
</g>
<g clip-path="url(#cp_2)">
<g transform="matrix(4.1666667 0 0 -4.1666667 2301.9777 1589.1118)">
<path d="M93.471123 213.21055 L107.76675 230.01327 L152.78474 191.71231 L138.48912 174.90959 L93.471123 213.21055 Z "  fill="#828282" fill-rule="evenodd" stroke="#000000" fill-opacity="0" stroke-opacity="1"  stroke-width="1" stroke-linecap="round" stroke-linejoin="round" stroke-miterlimit="10" />
</g>
</g>
<g clip-path="url(#cp_2)">
<g transform="matrix(4.1666667 0 0 -4.1666667 2301.9777 1589.1118)">
<path d="M125.60628 214.83553 L136.7564 205.3491 L133.64867 201.69635 L122.49855 211.18279 L125.60628 214.83553 Z "  fill="#828282" fill-rule="evenodd" stroke="#000000" fill-opacity="0" stroke-opacity="1"  stroke-width="1" stroke-linecap="round" stroke-linejoin="round" stroke-miterlimit="10" />
</g>
</g>
<g clip-path="url(#cp_2)">
<g transform="matrix(4.1666667 0 0 -4.1666667 2301.9777 1589.1118)">
<path d="M122.49855 211.18279 L133.16203 202.11038 L121.97414 188.96041 L111.31066 198.03281 L122.49855 211.18279 Z "  fill="#828282" fill-rule="evenodd" stroke="#000000" fill-opacity="0" stroke-opacity="1"  stroke-width="1" stroke-linecap="round" stroke-linejoin="round" stroke-miterlimit="10" />
</g>
</g>
<g clip-path="url(#cp_2)">
<g transform="matrix(4.1666667 0 0 -4.1666667 2301.9777 1589.1118)">
<path d="M104.82913 203.54724 L127.69626 184.09207 L100.20215 151.77616 L77.335017 171.23134 L104.82913 203.54724 Z "  fill="#828282" fill-rule="evenodd" stroke="#000000" fill-opacity="0" stroke-opacity="1"  stroke-width="1" stroke-linecap="round" stroke-linejoin="round" stroke-miterlimit="10" />
</g>
</g>
<g clip-path="url(#cp_2)">
<g transform="matrix(4.1666667 0 0 -4.1666667 2301.9777 1589.1118)">
<path d="M100.20215 151.77616 L121.06391 176.29656 L125.82784 172.24344 L104.96608 147.72305 L100.20215 151.77616 Z "  fill="#828282" fill-rule="evenodd" stroke="#000000" fill-opacity="0" stroke-opacity="1"  stroke-width="1" stroke-linecap="round" stroke-linejoin="round" stroke-miterlimit="10" />
</g>
</g>
<g clip-path="url(#cp_2)">
<g transform="matrix(4.1666667 0 0 -4.1666667 2301.9777 1589.1118)">
<path d="M100.20215 151.77616 L95.325458 146.04423 L72.746043 165.25462 L77.62273 170.98655 L100.20215 151.77616 Z "  fill="#828282" fill-rule="evenodd" stroke="#000000" fill-opacity="0" stroke-opacity="1"  stroke-width="1" stroke-linecap="round" stroke-linejoin="round" stroke-miterlimit="10" />
</g>
</g>
<g clip-path="url(#cp_2)">
<g transform="matrix(4.1666667 0 0 -4.1666667 2301.9777 1589.1118)">
<path d="M-87.417956 -172.25496 L-94.908568 -181.05924 L-102.64687 -174.47555 L-95.156258 -165.67127 L-87.417956 -172.25496 Z "  fill="#828282" fill-rule="evenodd" stroke="#000000" fill-opacity="0" stroke-opacity="1"  stroke-width="1" stroke-linecap="round" stroke-linejoin="round" stroke-miterlimit="10" />
</g>
</g>
<g clip-path="url(#cp_2)">
<g transform="matrix(4.1666667 0 0 -4.1666667 2301.9777 1589.1118)">
<path d="M-94.908568 -181.05924 L-91.001119 -176.46652 L-88.219459 -178.83314 L-92.126908 -183.42585 L-94.908568 -181.05924 Z "  fill="#828282" fill-rule="evenodd" stroke="#000000" fill-opacity="0" stroke-opacity="1"  stroke-width="1" stroke-linecap="round" stroke-linejoin="round" stroke-miterlimit="10" />
</g>
</g>
<g clip-path="url(#cp_2)">
<g transform="matrix(4.1666667 0 0 -4.1666667 2301.9777 1589.1118)">
<path d="M151.69936 163.67042 L182.44748 137.51016 L174.24377 127.86772 L143.49565 154.02798 L151.69936 163.67042 Z "  fill="#828282" fill-rule="evenodd" stroke="#000000" fill-opacity="0" stroke-opacity="1"  stroke-width="1" stroke-linecap="round" stroke-linejoin="round" stroke-miterlimit="10" />
</g>
</g>
<g clip-path="url(#cp_2)">
<g transform="matrix(4.1666667 0 0 -4.1666667 2301.9777 1589.1118)">
<path d="M146.15152 151.76839 L174.41594 127.72124 L153.15748 102.73457 L124.89306 126.78172 L146.15152 151.76839 Z "  fill="#828282" fill-rule="evenodd" stroke="#000000" fill-opacity="0" stroke-opacity="1"  stroke-width="1" stroke-linecap="round" stroke-linejoin="round" stroke-miterlimit="10" />
</g>
</g>
<g clip-path="url(#cp_2)">
<g transform="matrix(4.1666667 0 0 -4.1666667 2301.9777 1589.1118)">
<path d="M132.89558 119.97324 L145.62229 109.14545 L142.61434 105.60998 L129.88762 116.43776 L132.89558 119.97324 Z "  fill="#828282" fill-rule="evenodd" stroke="#000000" fill-opacity="0" stroke-opacity="1"  stroke-width="1" stroke-linecap="round" stroke-linejoin="round" stroke-miterlimit="10" />
</g>
</g>
<g clip-path="url(#cp_2)">
<g transform="matrix(4.1666667 0 0 -4.1666667 2301.9777 1589.1118)">
<path d="M-40.08561 -116.62169 L-53.512353 -105.19833 L-46.310275 -96.733182 L-32.883533 -108.15655 L-40.08561 -116.62169 Z "  fill="#828282" fill-rule="evenodd" stroke="#000000" fill-opacity="0" stroke-opacity="1"  stroke-width="1" stroke-linecap="round" stroke-linejoin="round" stroke-miterlimit="10" />
</g>
</g>
<g clip-path="url(#cp_2)">
<g transform="matrix(4.1666667 0 0 -4.1666667 2301.9777 1589.1118)">
<path d="M-41.761629 -100.60313 L-68.702033 -77.682451 L-44.499837 -49.235788 L-17.559432 -72.156472 L-41.761629 -100.60313 Z "  fill="#828282" fill-rule="evenodd" stroke="#000000" fill-opacity="0" stroke-opacity="1"  stroke-width="1" stroke-linecap="round" stroke-linejoin="round" stroke-miterlimit="10" />
</g>
</g>
<g clip-path="url(#cp_2)">
<g transform="matrix(4.1666667 0 0 -4.1666667 2301.9777 1589.1118)">
<path d="M-41.761629 -100.60313 L4.0594064 -46.746225 L24.50983 -64.145284 L-21.311205 -118.00219 L-41.761629 -100.60313 Z "  fill="#828282" fill-rule="evenodd" stroke="#000000" fill-opacity="0" stroke-opacity="1"  stroke-width="1" stroke-linecap="round" stroke-linejoin="round" stroke-miterlimit="10" />
</g>
</g>
<g clip-path="url(#cp_2)">
<g transform="matrix(4.1666667 0 0 -4.1666667 2301.9777 1589.1118)">
<path d="M-21.311205 -118.00219 L-0.61141121 -93.672169 L4.4885069 -98.011139 L-16.211287 -122.34116 L-21.311205 -118.00219 Z "  fill="#828282" fill-rule="evenodd" stroke="#000000" fill-opacity="0" stroke-opacity="1"  stroke-width="1" stroke-linecap="round" stroke-linejoin="round" stroke-miterlimit="10" />
</g>
</g>
<g clip-path="url(#cp_2)">
<g transform="matrix(4.1666667 0 0 -4.1666667 2301.9777 1589.1118)">
<path d="M17.130006 -72.819347 L71.635047 -8.7554707 L76.906058 -13.240005 L22.401017 -77.303882 L17.130006 -72.819347 Z "  fill="#828282" fill-rule="evenodd" stroke="#000000" fill-opacity="0" stroke-opacity="1"  stroke-width="1" stroke-linecap="round" stroke-linejoin="round" stroke-miterlimit="10" />
</g>
</g>
<g clip-path="url(#cp_2)">
<g transform="matrix(4.1666667 0 0 -4.1666667 2301.9777 1589.1118)">
<path d="M68.979438 -22.556758 L89.608327 1.6899271 L106.40556 -12.601027 L85.776672 -36.847712 L68.979438 -22.556758 Z "  fill="#828282" fill-rule="evenodd" stroke="#000000" fill-opacity="0" stroke-opacity="1"  stroke-width="1" stroke-linecap="round" stroke-linejoin="round" stroke-miterlimit="10" />
</g>
</g>
<g clip-path="url(#cp_2)">
<g transform="matrix(4.1666667 0 0 -4.1666667 2301.9777 1589.1118)">
<path d="M92.849053 -1.0672567 L98.664416 5.7679769 L105.2341 0.17854091 L99.418737 -6.6566927 L92.849053 -1.0672567 Z "  fill="#828282" fill-rule="evenodd" stroke="#000000" fill-opacity="0" stroke-opacity="1"  stroke-width="1" stroke-linecap="round" stroke-linejoin="round" stroke-miterlimit="10" />
</g>
</g>
<g clip-path="url(#cp_2)">
<g transform="matrix(4.1666667 0 0 -4.1666667 2301.9777 1589.1118)">
<path d="M41.553941 -44.112058 L13.151659 -19.947621 L32.177571 2.4149653 L60.579853 -21.749473 L41.553941 -44.112058 Z "  fill="#828282" fill-rule="evenodd" stroke="#000000" fill-opacity="0" stroke-opacity="1"  stroke-width="1" stroke-linecap="round" stroke-linejoin="round" stroke-miterlimit="10" />
</g>
</g>
<g clip-path="url(#cp_2)">
<g transform="matrix(4.1666667 0 0 -4.1666667 2301.9777 1589.1118)">
<path d="M62.617843 -19.354069 L60.579853 -21.749473 L47.734724 -10.820938 L49.772714 -8.4255345 L62.617843 -19.354069 Z "  fill="#828282" fill-rule="evenodd" stroke="#000000" fill-opacity="0" stroke-opacity="1"  stroke-width="1" stroke-linecap="round" stroke-linejoin="round" stroke-miterlimit="10" />
</g>
</g>
<g clip-path="url(#cp_2)">
<g transform="matrix(4.1666667 0 0 -4.1666667 2301.9777 1589.1118)">
<path d="M51.766478 -10.121813 L59.608336 -0.90468873 L68.599339 -8.5541638 L60.757482 -17.771289 L51.766478 -10.121813 Z "  fill="#828282" fill-rule="evenodd" stroke="#000000" fill-opacity="0" stroke-opacity="1"  stroke-width="1" stroke-linecap="round" stroke-linejoin="round" stroke-miterlimit="10" />
</g>
</g>
<g clip-path="url(#cp_2)">
<g transform="matrix(4.1666667 0 0 -4.1666667 2301.9777 1589.1118)">
<path d="M33.029542 127.54823 L50.987781 112.26951 L31.00611 88.783545 L13.047871 104.06227 L33.029542 127.54823 Z "  fill="#828282" fill-rule="evenodd" stroke="#000000" fill-opacity="0" stroke-opacity="1"  stroke-width="1" stroke-linecap="round" stroke-linejoin="round" stroke-miterlimit="10" />
</g>
</g>
<g clip-path="url(#cp_2)">
<g transform="matrix(4.1666667 0 0 -4.1666667 2301.9777 1589.1118)">
<path d="M48.214447 114.62904 L70.407288 140.71395 L91.389569 122.86239 L69.196728 96.777477 L48.214447 114.62904 Z "  fill="#828282" fill-rule="evenodd" stroke="#000000" fill-opacity="0" stroke-opacity="1"  stroke-width="1" stroke-linecap="round" stroke-linejoin="round" stroke-miterlimit="10" />
</g>
</g>
<g clip-path="url(#cp_2)">
<g transform="matrix(4.1666667 0 0 -4.1666667 2301.9777 1589.1118)">
<path d="M70.670062 98.509198 L88.477549 119.43968 L90.963583 117.32458 L73.156096 96.3941 L70.670062 98.509198 Z "  fill="#828282" fill-rule="evenodd" stroke="#000000" fill-opacity="0" stroke-opacity="1"  stroke-width="1" stroke-linecap="round" stroke-linejoin="round" stroke-miterlimit="10" />
</g>
</g>
<g clip-path="url(#cp_2)">
<g transform="matrix(4.1666667 0 0 -4.1666667 2301.9777 1589.1118)">
<path d="M90.963583 117.32458 L127.22055 86.477437 L109.06797 65.141344 L72.811003 95.988487 L90.963583 117.32458 Z "  fill="#828282" fill-rule="evenodd" stroke="#000000" fill-opacity="0" stroke-opacity="1"  stroke-width="1" stroke-linecap="round" stroke-linejoin="round" stroke-miterlimit="10" />
</g>
</g>
<g clip-path="url(#cp_2)">
<g transform="matrix(4.1666667 0 0 -4.1666667 2301.9777 1589.1118)">
<path d="M107.19597 103.51419 L113.17133 110.53748 L122.59301 102.52158 L116.61766 95.498295 L107.19597 103.51419 Z "  fill="#828282" fill-rule="evenodd" stroke="#000000" fill-opacity="0" stroke-opacity="1"  stroke-width="1" stroke-linecap="round" stroke-linejoin="round" stroke-miterlimit="10" />
</g>
</g>
<g clip-path="url(#cp_2)">
<g transform="matrix(4.1666667 0 0 -4.1666667 2301.9777 1589.1118)">
<path d="M127.22055 86.477437 L116.61766 95.498295 L120.48976 100.04947 L131.09265 91.028611 L127.22055 86.477437 Z "  fill="#828282" fill-rule="evenodd" stroke="#000000" fill-opacity="0" stroke-opacity="1"  stroke-width="1" stroke-linecap="round" stroke-linejoin="round" stroke-miterlimit="10" />
</g>
</g>
<g clip-path="url(#cp_2)">
<g transform="matrix(4.1666667 0 0 -4.1666667 2301.9777 1589.1118)">
<path d="M131.09265 91.028611 L137.64251 85.45604 L106.40556 48.740899 L99.8557 54.313469 L131.09265 91.028611 Z "  fill="#828282" fill-rule="evenodd" stroke="#000000" fill-opacity="0" stroke-opacity="1"  stroke-width="1" stroke-linecap="round" stroke-linejoin="round" stroke-miterlimit="10" />
</g>
</g>
<g clip-path="url(#cp_2)">
<g transform="matrix(4.1666667 0 0 -4.1666667 2301.9777 1589.1118)">
<path d="M133.71098 80.83501 L151.9138 65.348189 L126.63988 35.641842 L108.43705 51.128662 L133.71098 80.83501 Z "  fill="#828282" fill-rule="evenodd" stroke="#000000" fill-opacity="0" stroke-opacity="1"  stroke-width="1" stroke-linecap="round" stroke-linejoin="round" stroke-miterlimit="10" />
</g>
</g>
<g clip-path="url(#cp_2)">
<g transform="matrix(4.1666667 0 0 -4.1666667 2301.9777 1589.1118)">
<path d="M147.59857 69.019558 L142.20895 73.604999 L143.25331 74.832517 L148.64293 70.247075 L147.59857 69.019558 Z "  fill="#828282" fill-rule="evenodd" stroke="#000000" fill-opacity="0" stroke-opacity="1"  stroke-width="1" stroke-linecap="round" stroke-linejoin="round" stroke-miterlimit="10" />
</g>
</g>
<g clip-path="url(#cp_2)">
<g transform="matrix(4.1666667 0 0 -4.1666667 2301.9777 1589.1118)">
<path d="M115.65138 44.990765 L121.25497 40.223282 L119.07863 37.665273 L113.47505 42.432757 L115.65138 44.990765 Z "  fill="#828282" fill-rule="evenodd" stroke="#000000" fill-opacity="0" stroke-opacity="1"  stroke-width="1" stroke-linecap="round" stroke-linejoin="round" stroke-miterlimit="10" />
</g>
</g>
<g clip-path="url(#cp_2)">
<g transform="matrix(4.1666667 0 0 -4.1666667 2301.9777 1589.1118)">
<path d="M74.025957 94.954814 L108.21797 65.864514 L102.89118 59.603532 L68.699162 88.693831 L74.025957 94.954814 Z "  fill="#828282" fill-rule="evenodd" stroke="#000000" fill-opacity="0" stroke-opacity="1"  stroke-width="1" stroke-linecap="round" stroke-linejoin="round" stroke-miterlimit="10" />
</g>
</g>
<g clip-path="url(#cp_2)">
<g transform="matrix(4.1666667 0 0 -4.1666667 2301.9777 1589.1118)">
<path d="M68.699162 88.693831 L73.0134 85.023311 L42.498243 49.156551 L38.184005 52.827071 L68.699162 88.693831 Z "  fill="#828282" fill-rule="evenodd" stroke="#000000" fill-opacity="0" stroke-opacity="1"  stroke-width="1" stroke-linecap="round" stroke-linejoin="round" stroke-miterlimit="10" />
</g>
</g>
<g clip-path="url(#cp_2)">
<g transform="matrix(4.1666667 0 0 -4.1666667 2301.9777 1589.1118)">
<path d="M42.498243 49.156551 L46.516459 53.879463 L57.181092 44.806077 L53.162875 40.083166 L42.498243 49.156551 Z "  fill="#828282" fill-rule="evenodd" stroke="#000000" fill-opacity="0" stroke-opacity="1"  stroke-width="1" stroke-linecap="round" stroke-linejoin="round" stroke-miterlimit="10" />
</g>
</g>
<g clip-path="url(#cp_2)">
<g transform="matrix(4.1666667 0 0 -4.1666667 2301.9777 1589.1118)">
<path d="M53.162875 40.083166 L35.638949 19.485976 L30.806345 23.597518 L48.330271 44.194707 L53.162875 40.083166 Z "  fill="#828282" fill-rule="evenodd" stroke="#000000" fill-opacity="0" stroke-opacity="1"  stroke-width="1" stroke-linecap="round" stroke-linejoin="round" stroke-miterlimit="10" />
</g>
</g>
<g clip-path="url(#cp_2)">
<g transform="matrix(4.1666667 0 0 -4.1666667 2301.9777 1589.1118)">
<path d="M35.638949 19.485976 L39.929239 24.528677 L60.625217 6.9207022 L56.334927 1.8780016 L35.638949 19.485976 Z "  fill="#828282" fill-rule="evenodd" stroke="#000000" fill-opacity="0" stroke-opacity="1"  stroke-width="1" stroke-linecap="round" stroke-linejoin="round" stroke-miterlimit="10" />
</g>
</g>
<g clip-path="url(#cp_2)">
<g transform="matrix(4.1666667 0 0 -4.1666667 2301.9777 1589.1118)">
<path d="M32.177571 2.4149653 L40.196116 11.839765 L55.459029 -1.1458011 L47.440484 -10.570601 L32.177571 2.4149653 Z "  fill="#828282" fill-rule="evenodd" stroke="#000000" fill-opacity="0" stroke-opacity="1"  stroke-width="1" stroke-linecap="round" stroke-linejoin="round" stroke-miterlimit="10" />
</g>
</g>
<g clip-path="url(#cp_2)">
<g transform="matrix(4.1666667 0 0 -4.1666667 2301.9777 1589.1118)">
<path d="M15.336135 -17.380042 L-0.046196258 -4.2928755 L23.374285 23.234979 L38.756616 10.147813 L15.336135 -17.380042 Z "  fill="#828282" fill-rule="evenodd" stroke="#000000" fill-opacity="0" stroke-opacity="1"  stroke-width="1" stroke-linecap="round" stroke-linejoin="round" stroke-miterlimit="10" />
</g>
</g>
<g clip-path="url(#cp_2)">
<g transform="matrix(4.1666667 0 0 -4.1666667 2301.9777 1589.1118)">
<path d="M28.825941 18.596753 L32.125608 22.475099 L41.909783 14.1508 L38.610116 10.272454 L28.825941 18.596753 Z "  fill="#828282" fill-rule="evenodd" stroke="#000000" fill-opacity="0" stroke-opacity="1"  stroke-width="1" stroke-linecap="round" stroke-linejoin="round" stroke-miterlimit="10" />
</g>
</g>
<g clip-path="url(#cp_2)">
<g transform="matrix(4.1666667 0 0 -4.1666667 2301.9777 1589.1118)">
<path d="M10.398983 7.9841296 L-19.539199 -27.204468 L-40.023073 -9.7769488 L-10.084892 25.411649 L10.398983 7.9841296 Z "  fill="#828282" fill-rule="evenodd" stroke="#000000" fill-opacity="0" stroke-opacity="1"  stroke-width="1" stroke-linecap="round" stroke-linejoin="round" stroke-miterlimit="10" />
</g>
</g>
<g clip-path="url(#cp_2)">
<g transform="matrix(4.1666667 0 0 -4.1666667 2301.9777 1589.1118)">
<path d="M30.806345 23.597518 L26.864588 26.951133 L33.063451 34.237123 L37.005207 30.883508 L30.806345 23.597518 Z "  fill="#828282" fill-rule="evenodd" stroke="#000000" fill-opacity="0" stroke-opacity="1"  stroke-width="1" stroke-linecap="round" stroke-linejoin="round" stroke-miterlimit="10" />
</g>
</g>
<g clip-path="url(#cp_2)">
<g transform="matrix(4.1666667 0 0 -4.1666667 2301.9777 1589.1118)">
<path d="M35.197554 32.421445 L24.51382 41.511082 L30.051962 48.020477 L40.735696 38.93084 L35.197554 32.421445 Z "  fill="#828282" fill-rule="evenodd" stroke="#000000" fill-opacity="0" stroke-opacity="1"  stroke-width="1" stroke-linecap="round" stroke-linejoin="round" stroke-miterlimit="10" />
</g>
</g>
<g clip-path="url(#cp_2)">
<g transform="matrix(4.1666667 0 0 -4.1666667 2301.9777 1589.1118)">
<path d="M24.51382 41.511082 L-3.2587388 65.139756 L5.7283958 75.703011 L33.500954 52.074337 L24.51382 41.511082 Z "  fill="#828282" fill-rule="evenodd" stroke="#000000" fill-opacity="0" stroke-opacity="1"  stroke-width="1" stroke-linecap="round" stroke-linejoin="round" stroke-miterlimit="10" />
</g>
</g>
<g clip-path="url(#cp_2)">
<g transform="matrix(4.1666667 0 0 -4.1666667 2301.9777 1589.1118)">
<path d="M2.3828662 71.770759 L-15.555595 50.686336 L-19.637609 54.159282 L-1.6991479 75.243704 L2.3828662 71.770759 Z "  fill="#828282" fill-rule="evenodd" stroke="#000000" fill-opacity="0" stroke-opacity="1"  stroke-width="1" stroke-linecap="round" stroke-linejoin="round" stroke-miterlimit="10" />
</g>
</g>
<g clip-path="url(#cp_2)">
<g transform="matrix(4.1666667 0 0 -4.1666667 2301.9777 1589.1118)">
<path d="M21.029077 20.478479 L9.0300655 30.973742 L20.920714 44.568068 L32.919725 34.072805 L21.029077 20.478479 Z "  fill="#828282" fill-rule="evenodd" stroke="#000000" fill-opacity="0" stroke-opacity="1"  stroke-width="1" stroke-linecap="round" stroke-linejoin="round" stroke-miterlimit="10" />
</g>
</g>
<g clip-path="url(#cp_2)">
<g transform="matrix(4.1666667 0 0 -4.1666667 2301.9777 1589.1118)">
<path d="M-15.555595 50.686336 L-3.2587388 65.139756 L4.3282494 58.684806 L-7.9686064 44.231386 L-15.555595 50.686336 Z "  fill="#828282" fill-rule="evenodd" stroke="#000000" fill-opacity="0" stroke-opacity="1"  stroke-width="1" stroke-linecap="round" stroke-linejoin="round" stroke-miterlimit="10" />
</g>
</g>
<g clip-path="url(#cp_2)">
<g transform="matrix(4.1666667 0 0 -4.1666667 2301.9777 1589.1118)">
<path d="M9.0300655 30.973742 L-14.775509 51.795939 L-8.7714406 58.660263 L15.034134 37.838066 L9.0300655 30.973742 Z "  fill="#828282" fill-rule="evenodd" stroke="#000000" fill-opacity="0" stroke-opacity="1"  stroke-width="1" stroke-linecap="round" stroke-linejoin="round" stroke-miterlimit="10" />
</g>
</g>
<g clip-path="url(#cp_2)">
<g transform="matrix(4.1666667 0 0 -4.1666667 2301.9777 1589.1118)">
<path d="M-15.555595 50.686336 L-7.9771544 44.238659 L-11.066447 40.607581 L-18.644887 47.055258 L-15.555595 50.686336 Z "  fill="#828282" fill-rule="evenodd" stroke="#000000" fill-opacity="0" stroke-opacity="1"  stroke-width="1" stroke-linecap="round" stroke-linejoin="round" stroke-miterlimit="10" />
</g>
</g>
<g clip-path="url(#cp_2)">
<g transform="matrix(4.1666667 0 0 -4.1666667 2301.9777 1589.1118)">
<path d="M-11.066447 40.607581 L-7.288395 45.04821 L1.0397665 37.962675 L-2.7382858 33.522046 L-11.066447 40.607581 Z "  fill="#828282" fill-rule="evenodd" stroke="#000000" fill-opacity="0" stroke-opacity="1"  stroke-width="1" stroke-linecap="round" stroke-linejoin="round" stroke-miterlimit="10" />
</g>
</g>
<g clip-path="url(#cp_2)">
<g transform="matrix(4.1666667 0 0 -4.1666667 2301.9777 1589.1118)">
<path d="M-10.084892 25.411649 L1.1012328 38.032023 L11.644138 28.687272 L0.45801381 16.066898 L-10.084892 25.411649 Z "  fill="#828282" fill-rule="evenodd" stroke="#000000" fill-opacity="0" stroke-opacity="1"  stroke-width="1" stroke-linecap="round" stroke-linejoin="round" stroke-miterlimit="10" />
</g>
</g>
<g clip-path="url(#cp_2)">
<g transform="matrix(4.1666667 0 0 -4.1666667 2301.9777 1589.1118)">
<path d="M5.7397226 22.025811 L11.666766 28.712802 L15.548044 25.272614 L9.6210006 18.585623 L5.7397226 22.025811 Z "  fill="#828282" fill-rule="evenodd" stroke="#000000" fill-opacity="0" stroke-opacity="1"  stroke-width="1" stroke-linecap="round" stroke-linejoin="round" stroke-miterlimit="10" />
</g>
</g>
<g clip-path="url(#cp_2)">
<g transform="matrix(4.1666667 0 0 -4.1666667 2301.9777 1589.1118)">
<path d="M-23.057541 -24.21109 L-24.947443 -26.432435 L-41.528818 -12.325132 L-39.638915 -10.103787 L-23.057541 -24.21109 Z "  fill="#828282" fill-rule="evenodd" stroke="#000000" fill-opacity="0" stroke-opacity="1"  stroke-width="1" stroke-linecap="round" stroke-linejoin="round" stroke-miterlimit="10" />
</g>
</g>
<g clip-path="url(#cp_2)">
<g transform="matrix(4.1666667 0 0 -4.1666667 2301.9777 1589.1118)">
<path d="M-13.919597 43.035018 L-19.332689 36.672604 L-24.502322 41.070887 L-19.08923 47.433301 L-13.919597 43.035018 Z "  fill="#828282" fill-rule="evenodd" stroke="#000000" fill-opacity="0" stroke-opacity="1"  stroke-width="1" stroke-linecap="round" stroke-linejoin="round" stroke-miterlimit="10" />
</g>
</g>
<g clip-path="url(#cp_2)">
<g transform="matrix(4.1666667 0 0 -4.1666667 2301.9777 1589.1118)">
<path d="M-29.423195 -22.6245 L-25.035316 -26.357673 L-44.499837 -49.235788 L-48.887716 -45.502615 L-29.423195 -22.6245 Z "  fill="#828282" fill-rule="evenodd" stroke="#000000" fill-opacity="0" stroke-opacity="1"  stroke-width="1" stroke-linecap="round" stroke-linejoin="round" stroke-miterlimit="10" />
</g>
</g>
<g clip-path="url(#cp_2)">
<g transform="matrix(4.1666667 0 0 -4.1666667 2301.9777 1589.1118)">
<path d="M-48.887716 -45.502615 L-44.499837 -49.235788 L-68.702033 -77.682451 L-73.089912 -73.949278 L-48.887716 -45.502615 Z "  fill="#828282" fill-rule="evenodd" stroke="#000000" fill-opacity="0" stroke-opacity="1"  stroke-width="1" stroke-linecap="round" stroke-linejoin="round" stroke-miterlimit="10" />
</g>
</g>
<g clip-path="url(#cp_2)">
<g transform="matrix(4.1666667 0 0 -4.1666667 2301.9777 1589.1118)">
<path d="M-61.023262 -59.766436 L-63.827382 -57.380713 L-60.871844 -53.906847 L-58.067724 -56.29257 L-61.023262 -59.766436 Z "  fill="#828282" fill-rule="evenodd" stroke="#000000" fill-opacity="0" stroke-opacity="1"  stroke-width="1" stroke-linecap="round" stroke-linejoin="round" stroke-miterlimit="10" />
</g>
</g>
<g clip-path="url(#cp_2)">
<g transform="matrix(4.1666667 0 0 -4.1666667 2301.9777 1589.1118)">
<path d="M-41.939192 -46.22607 L-38.903645 -42.658163 L-11.96324 -65.578847 L-14.998787 -69.146754 L-41.939192 -46.22607 Z "  fill="#828282" fill-rule="evenodd" stroke="#000000" fill-opacity="0" stroke-opacity="1"  stroke-width="1" stroke-linecap="round" stroke-linejoin="round" stroke-miterlimit="10" />
</g>
</g>
<g clip-path="url(#cp_2)">
<g transform="matrix(4.1666667 0 0 -4.1666667 2301.9777 1589.1118)">
<path d="M-23.057541 -24.21109 L-9.4957426 -35.860726 L-25.286577 -54.243457 L-38.848375 -42.593822 L-23.057541 -24.21109 Z "  fill="#828282" fill-rule="evenodd" stroke="#000000" fill-opacity="0" stroke-opacity="1"  stroke-width="1" stroke-linecap="round" stroke-linejoin="round" stroke-miterlimit="10" />
</g>
</g>
<g clip-path="url(#cp_2)">
<g transform="matrix(4.1666667 0 0 -4.1666667 2301.9777 1589.1118)">
<path d="M-16.363145 -43.855338 L-8.4506057 -34.644041 L-2.6111125 -39.660187 L-10.523651 -48.871484 L-16.363145 -43.855338 Z "  fill="#828282" fill-rule="evenodd" stroke="#000000" fill-opacity="0" stroke-opacity="1"  stroke-width="1" stroke-linecap="round" stroke-linejoin="round" stroke-miterlimit="10" />
</g>
</g>
<g clip-path="url(#cp_2)">
<g transform="matrix(4.1666667 0 0 -4.1666667 2301.9777 1589.1118)">
<path d="M-16.363145 -43.855338 L-3.0938848 -55.253682 L-11.96324 -65.578847 L-25.2325 -54.180503 L-16.363145 -43.855338 Z "  fill="#828282" fill-rule="evenodd" stroke="#000000" fill-opacity="0" stroke-opacity="1"  stroke-width="1" stroke-linecap="round" stroke-linejoin="round" stroke-miterlimit="10" />
</g>
</g>
<g clip-path="url(#cp_2)">
<g transform="matrix(4.1666667 0 0 -4.1666667 2301.9777 1589.1118)">
<path d="M-21.591393 38.594291 L-12.603568 30.947521 L-18.831456 23.627415 L-27.819281 31.274185 L-21.591393 38.594291 Z "  fill="#828282" fill-rule="evenodd" stroke="#000000" fill-opacity="0" stroke-opacity="1"  stroke-width="1" stroke-linecap="round" stroke-linejoin="round" stroke-miterlimit="10" />
</g>
</g>
<g clip-path="url(#cp_2)">
<g transform="matrix(4.1666667 0 0 -4.1666667 2301.9777 1589.1118)">
<path d="M-14.228901 32.330341 L-17.367633 35.00075 L-11.954542 41.363164 L-8.815809 38.692755 L-14.228901 32.330341 Z "  fill="#828282" fill-rule="evenodd" stroke="#000000" fill-opacity="0" stroke-opacity="1"  stroke-width="1" stroke-linecap="round" stroke-linejoin="round" stroke-miterlimit="10" />
</g>
</g>
<g clip-path="url(#cp_2)">
<g transform="matrix(4.1666667 0 0 -4.1666667 2301.9777 1589.1118)">
<path d="M-21.591393 38.594291 L-33.585182 24.497087 L-46.852204 35.784565 L-34.858414 49.881769 L-21.591393 38.594291 Z "  fill="#828282" fill-rule="evenodd" stroke="#000000" fill-opacity="0" stroke-opacity="1"  stroke-width="1" stroke-linecap="round" stroke-linejoin="round" stroke-miterlimit="10" />
</g>
</g>
<g clip-path="url(#cp_2)">
<g transform="matrix(4.1666667 0 0 -4.1666667 2301.9777 1589.1118)">
<path d="M-46.852204 35.784565 L-39.498742 29.528298 L-58.268064 7.4673012 L-65.621526 13.723569 L-46.852204 35.784565 Z "  fill="#828282" fill-rule="evenodd" stroke="#000000" fill-opacity="0" stroke-opacity="1"  stroke-width="1" stroke-linecap="round" stroke-linejoin="round" stroke-miterlimit="10" />
</g>
</g>
<g clip-path="url(#cp_2)">
<g transform="matrix(4.1666667 0 0 -4.1666667 2301.9777 1589.1118)">
<path d="M-39.498742 29.528298 L-32.168332 23.291642 L-50.929297 1.2404683 L-58.259707 7.4771237 L-39.498742 29.528298 Z "  fill="#828282" fill-rule="evenodd" stroke="#000000" fill-opacity="0" stroke-opacity="1"  stroke-width="1" stroke-linecap="round" stroke-linejoin="round" stroke-miterlimit="10" />
</g>
</g>
<g clip-path="url(#cp_2)">
<g transform="matrix(4.1666667 0 0 -4.1666667 2301.9777 1589.1118)">
<path d="M-50.929297 1.2404683 L-30.214439 25.588199 L-18.450198 15.579275 L-39.165055 -8.7684558 L-50.929297 1.2404683 Z "  fill="#828282" fill-rule="evenodd" stroke="#000000" fill-opacity="0" stroke-opacity="1"  stroke-width="1" stroke-linecap="round" stroke-linejoin="round" stroke-miterlimit="10" />
</g>
</g>
<g clip-path="url(#cp_2)">
<g transform="matrix(4.1666667 0 0 -4.1666667 2301.9777 1589.1118)">
<path d="M-64.563833 12.823691 L-51.541605 1.7622313 L-56.266582 -3.8003012 L-69.28881 7.2611588 L-64.563833 12.823691 Z "  fill="#828282" fill-rule="evenodd" stroke="#000000" fill-opacity="0" stroke-opacity="1"  stroke-width="1" stroke-linecap="round" stroke-linejoin="round" stroke-miterlimit="10" />
</g>
</g>
<g clip-path="url(#cp_2)">
<g transform="matrix(4.1666667 0 0 -4.1666667 2301.9777 1589.1118)">
<path d="M-51.541605 1.7622313 L-38.77447 -9.0825453 L-41.528818 -12.325132 L-54.295953 -1.4803553 L-51.541605 1.7622313 Z "  fill="#828282" fill-rule="evenodd" stroke="#000000" fill-opacity="0" stroke-opacity="1"  stroke-width="1" stroke-linecap="round" stroke-linejoin="round" stroke-miterlimit="10" />
</g>
</g>
<g clip-path="url(#cp_2)">
<g transform="matrix(4.1666667 0 0 -4.1666667 2301.9777 1589.1118)">
<path d="M-113.01893 -58.088598 L-134.59919 -83.453502 L-141.44076 -77.632748 L-119.8605 -52.267844 L-113.01893 -58.088598 Z "  fill="#828282" fill-rule="evenodd" stroke="#000000" fill-opacity="0" stroke-opacity="1"  stroke-width="1" stroke-linecap="round" stroke-linejoin="round" stroke-miterlimit="10" />
</g>
</g>
<g clip-path="url(#cp_2)">
<g transform="matrix(4.1666667 0 0 -4.1666667 2301.9777 1589.1118)">
<path d="M38.184005 52.827071 L35.755519 54.893207 L66.074005 90.528804 L68.50249 88.462668 L38.184005 52.827071 Z "  fill="#828282" fill-rule="evenodd" stroke="#000000" fill-opacity="0" stroke-opacity="1"  stroke-width="1" stroke-linecap="round" stroke-linejoin="round" stroke-miterlimit="10" />
</g>
</g>
<g clip-path="url(#cp_2)">
<g transform="matrix(4.1666667 0 0 -4.1666667 2301.9777 1589.1118)">
<path d="M49.132213 70.615841 L34.799344 53.769343 L23.449851 63.425402 L37.78272 80.271901 L49.132213 70.615841 Z "  fill="#828282" fill-rule="evenodd" stroke="#000000" fill-opacity="0" stroke-opacity="1"  stroke-width="1" stroke-linecap="round" stroke-linejoin="round" stroke-miterlimit="10" />
</g>
</g>
<g clip-path="url(#cp_2)">
<g transform="matrix(4.1666667 0 0 -4.1666667 2301.9777 1589.1118)">
<path d="M23.449851 63.425402 L18.468159 67.663786 L32.600145 84.274173 L37.581837 80.035788 L23.449851 63.425402 Z "  fill="#828282" fill-rule="evenodd" stroke="#000000" fill-opacity="0" stroke-opacity="1"  stroke-width="1" stroke-linecap="round" stroke-linejoin="round" stroke-miterlimit="10" />
</g>
</g>
<g clip-path="url(#cp_2)">
<g transform="matrix(4.1666667 0 0 -4.1666667 2301.9777 1589.1118)">
<path d="M32.600145 84.274173 L18.728776 67.970109 L2.8327332 81.494337 L16.704102 97.798401 L32.600145 84.274173 Z "  fill="#828282" fill-rule="evenodd" stroke="#000000" fill-opacity="0" stroke-opacity="1"  stroke-width="1" stroke-linecap="round" stroke-linejoin="round" stroke-miterlimit="10" />
</g>
</g>
<g clip-path="url(#cp_2)">
<g transform="matrix(4.1666667 0 0 -4.1666667 2301.9777 1589.1118)">
<path d="M-54.295953 -1.4803553 L-29.418749 -22.611777 L-33.393718 -27.291354 L-58.270922 -6.1599322 L-54.295953 -1.4803553 Z "  fill="#828282" fill-rule="evenodd" stroke="#000000" fill-opacity="0" stroke-opacity="1"  stroke-width="1" stroke-linecap="round" stroke-linejoin="round" stroke-miterlimit="10" />
</g>
</g>
<g clip-path="url(#cp_2)">
<g transform="matrix(4.1666667 0 0 -4.1666667 2301.9777 1589.1118)">
<path d="M-38.066179 -23.32243 L-51.73982 -39.419876 L-70.137964 -23.791956 L-56.464324 -7.6945092 L-38.066179 -23.32243 Z "  fill="#828282" fill-rule="evenodd" stroke="#000000" fill-opacity="0" stroke-opacity="1"  stroke-width="1" stroke-linecap="round" stroke-linejoin="round" stroke-miterlimit="10" />
</g>
</g>
<g clip-path="url(#cp_2)">
<g transform="matrix(4.1666667 0 0 -4.1666667 2301.9777 1589.1118)">
<path d="M-70.137964 -23.791956 L-88.573911 -8.1319248 L-78.361646 3.8905787 L-59.925699 -11.769452 L-70.137964 -23.791956 Z "  fill="#828282" fill-rule="evenodd" stroke="#000000" fill-opacity="0" stroke-opacity="1"  stroke-width="1" stroke-linecap="round" stroke-linejoin="round" stroke-miterlimit="10" />
</g>
</g>
<g clip-path="url(#cp_2)">
<g transform="matrix(4.1666667 0 0 -4.1666667 2301.9777 1589.1118)">
<path d="M68.599339 -8.5541638 L57.32742 1.0358965 L77.888308 25.202656 L89.160227 15.612595 L68.599339 -8.5541638 Z "  fill="#828282" fill-rule="evenodd" stroke="#000000" fill-opacity="0" stroke-opacity="1"  stroke-width="1" stroke-linecap="round" stroke-linejoin="round" stroke-miterlimit="10" />
</g>
</g>
<g clip-path="url(#cp_2)">
<g transform="matrix(4.1666667 0 0 -4.1666667 2301.9777 1589.1118)">
<path d="M19.488664 -25.339095 L23.590904 -28.829248 L6.5467929 -48.862474 L2.4445538 -45.372321 L19.488664 -25.339095 Z "  fill="#828282" fill-rule="evenodd" stroke="#000000" fill-opacity="0" stroke-opacity="1"  stroke-width="1" stroke-linecap="round" stroke-linejoin="round" stroke-miterlimit="10" />
</g>
</g>
<g clip-path="url(#cp_2)">
<g transform="matrix(4.1666667 0 0 -4.1666667 2301.9777 1589.1118)">
<path d="M-82.539698 -24.183385 L-58.600023 -44.518443 L-73.316244 -61.843279 L-72.574566 -62.473282 L-74.872952 -65.179082 L-91.180775 -51.326741 L-88.88239 -48.620941 L-97.255919 -41.508221 L-99.347029 -39.731971 L-93.256935 -32.562339 L-91.165824 -34.338589 L-82.539698 -24.183385 Z "  fill="#828282" fill-rule="evenodd" stroke="#000000" fill-opacity="0" stroke-opacity="1"  stroke-width="1" stroke-linecap="round" stroke-linejoin="round" stroke-miterlimit="10" />
</g>
</g>
<g clip-path="url(#cp_2)">
<g transform="matrix(4.1666667 0 0 -4.1666667 2301.9777 1589.1118)">
<path d="M42.467942 119.51812 L45.709057 123.32764 L51.455562 118.43856 L48.214447 114.62904 L42.467942 119.51812 Z "  fill="#828282" fill-rule="evenodd" stroke="#000000" fill-opacity="0" stroke-opacity="1"  stroke-width="1" stroke-linecap="round" stroke-linejoin="round" stroke-miterlimit="10" />
</g>
</g>
<g clip-path="url(#cp_2)">
<g transform="matrix(4.1666667 0 0 -4.1666667 2301.9777 1589.1118)">
<path d="M54.273828 121.75108 L46.006462 128.78489 L51.961703 135.78454 L60.229069 128.75073 L54.273828 121.75108 Z "  fill="#828282" fill-rule="evenodd" stroke="#000000" fill-opacity="0" stroke-opacity="1"  stroke-width="1" stroke-linecap="round" stroke-linejoin="round" stroke-miterlimit="10" />
</g>
</g>
<g clip-path="url(#cp_2)">
<g transform="matrix(4.1666667 0 0 -4.1666667 2301.9777 1589.1118)">
<path d="M-104.1645 -192.35931 L-112.37271 -202.00703 L-116.81605 -198.22667 L-108.60784 -188.57895 L-104.1645 -192.35931 Z "  fill="#828282" fill-rule="evenodd" stroke="#000000" fill-opacity="0" stroke-opacity="1"  stroke-width="1" stroke-linecap="round" stroke-linejoin="round" stroke-miterlimit="10" />
</g>
</g>
<g clip-path="url(#cp_2)">
<g transform="matrix(4.1666667 0 0 -4.1666667 2301.9777 1589.1118)">
<path d="M-120.48081 -195.10872 L-132.8522 -184.58323 L-123.76564 -173.90311 L-111.39424 -184.42859 L-120.48081 -195.10872 Z "  fill="#828282" fill-rule="evenodd" stroke="#000000" fill-opacity="0" stroke-opacity="1"  stroke-width="1" stroke-linecap="round" stroke-linejoin="round" stroke-miterlimit="10" />
</g>
</g>
<g clip-path="url(#cp_2)">
<g transform="matrix(4.1666667 0 0 -4.1666667 2301.9777 1589.1118)">
<path d="M121.83021 -38.730305 L112.78038 -49.36725 L101.47985 -39.752848 L110.52968 -29.115904 L121.83021 -38.730305 Z "  fill="#828282" fill-rule="evenodd" stroke="#000000" fill-opacity="0" stroke-opacity="1"  stroke-width="1" stroke-linecap="round" stroke-linejoin="round" stroke-miterlimit="10" />
</g>
</g>
<g clip-path="url(#cp_2)">
<g transform="matrix(4.1666667 0 0 -4.1666667 2301.9777 1589.1118)">
<path d="M-13.521158 -137.51237 L10.384024 -157.85071 L-41.268208 -218.56146 L-65.17339 -198.22312 L-13.521158 -137.51237 Z "  fill="#828282" fill-rule="evenodd" stroke="#000000" fill-opacity="0" stroke-opacity="1"  stroke-width="1" stroke-linecap="round" stroke-linejoin="round" stroke-miterlimit="10" />
</g>
</g>
<g clip-path="url(#cp_2)">
<g transform="matrix(4.1666667 0 0 -4.1666667 2301.9777 1589.1118)">
<path d="M102.64349 51.941641 L112.98391 42.920582 L89.160227 15.612595 L78.819805 24.633654 L102.64349 51.941641 Z "  fill="#828282" fill-rule="evenodd" stroke="#000000" fill-opacity="0" stroke-opacity="1"  stroke-width="1" stroke-linecap="round" stroke-linejoin="round" stroke-miterlimit="10" />
</g>
</g>
<g clip-path="url(#cp_2)">
<g transform="matrix(4.1666667 0 0 -4.1666667 2301.9777 1589.1118)">
<path d="M112.98391 42.920582 L126.59646 31.0449 L102.90683 3.8905788 L89.294287 15.766261 L112.98391 42.920582 Z "  fill="#828282" fill-rule="evenodd" stroke="#000000" fill-opacity="0" stroke-opacity="1"  stroke-width="1" stroke-linecap="round" stroke-linejoin="round" stroke-miterlimit="10" />
</g>
</g>
</g>
<!-- Begin_Label-->
<clipPath id="cp_3">
<path d="M3959.0844 2751.9937 L3959.0844 426.22987 L644.87089 426.22987 L644.87089 2751.9937 Z " />
</clipPath>
<g clip-path="url(#cp_3)">
<g id="EmbdFile__1" transform="matrix(1 0 0 1 644.87089 426.22987)">
<g>
<g transform="scale(1,1)">
</g>
</g>
</g>
</g>
<!-- End_Label-->
<g transform="matrix(4.1666667 0 0 -4.1666667 0 3507.867)">
<path d="M154.76901 739.59291 L950.18026 739.59291 L950.18026 181.40958 L154.76901 181.40958 L154.76901 739.59291 Z "  stroke="#000000" fill="none" stroke-opacity="1" stroke-width="1" stroke-linecap="round" stroke-linejoin="miter" stroke-miterlimit="10" />
</g>
</g>
</g>
</svg>
