<?xml version="1.0" encoding="utf-8" standalone="no"?>
<!DOCTYPE svg PUBLIC "-//W3C//DTD SVG 1.1//EN" "http://www.w3.org/Graphics/SVG/1.1/DTD/svg11.dtd">
<svg version="1.1" xmlns="http://www.w3.org/2000/svg" xmlns:xlink="http://www.w3.org/1999/xlink" width="1191pt" height="842pt" viewBox="0 0 1191 842" xml:space="preserve" enable-background="new 0 0 1191 842">
<g transform="scale(0.24,0.24)">
<g>
	<rect x="0" y="0" width="4960.62" height="3507.867" fill="#FFFFFF" fill-opacity="1" />
</g>
<g id="Map_Frame">
<g id="Polnep">
<clipPath id="cp_2">
<path d="M4960.62 3507.867 L4960.62 0 L0 0 L0 3507.867 Z " />
</clipPath>
<g clip-path="url(#cp_2)">
<g transform="matrix(4.1666667 0 0 -4.1666667 2500.1544 1675.1702)">
<path d="M308.40311 138.25055 L282.95782 159.50156 L296.46919 175.67965 L321.91448 154.42864 L308.40311 138.25055 Z "  fill="#828282" fill-rule="evenodd" stroke="#000000" fill-opacity="0" stroke-opacity="1"  stroke-width="1" stroke-linecap="round" stroke-linejoin="round" stroke-miterlimit="10" />
</g>
</g>
<g clip-path="url(#cp_2)">
<g transform="matrix(4.1666667 0 0 -4.1666667 2500.1544 1675.1702)">
<path d="M231.13163 28.635533 L222.01494 36.391949 L231.16897 47.151378 L240.28567 39.394962 L231.13163 28.635533 Z "  fill="#828282" fill-rule="evenodd" stroke="#000000" fill-opacity="0" stroke-opacity="1"  stroke-width="1" stroke-linecap="round" stroke-linejoin="round" stroke-miterlimit="10" />
</g>
</g>
<g clip-path="url(#cp_2)">
<g transform="matrix(4.1666667 0 0 -4.1666667 2500.1544 1675.1702)">
<path d="M205.47851 6.3590846 L181.6245 26.653885 L200.0974 48.366468 L223.9514 28.071667 L205.47851 6.3590846 Z "  fill="#828282" fill-rule="evenodd" stroke="#000000" fill-opacity="0" stroke-opacity="1"  stroke-width="1" stroke-linecap="round" stroke-linejoin="round" stroke-miterlimit="10" />
</g>
</g>
<g clip-path="url(#cp_2)">
<g transform="matrix(4.1666667 0 0 -4.1666667 2500.1544 1675.1702)">
<path d="M155.83342 -51.444463 L139.27078 -37.353098 L188.64537 20.680581 L205.20802 6.5892164 L155.83342 -51.444463 Z "  fill="#828282" fill-rule="evenodd" stroke="#000000" fill-opacity="0" stroke-opacity="1"  stroke-width="1" stroke-linecap="round" stroke-linejoin="round" stroke-miterlimit="10" />
</g>
</g>
<g clip-path="url(#cp_2)">
<g transform="matrix(4.1666667 0 0 -4.1666667 2500.1544 1675.1702)">
<path d="M126.63406 -94.188327 L103.29778 -121.61721 L78.762022 -100.74238 L102.0983 -73.313497 L126.63406 -94.188327 Z "  fill="#828282" fill-rule="evenodd" stroke="#000000" fill-opacity="0" stroke-opacity="1"  stroke-width="1" stroke-linecap="round" stroke-linejoin="round" stroke-miterlimit="10" />
</g>
</g>
<g clip-path="url(#cp_2)">
<g transform="matrix(4.1666667 0 0 -4.1666667 2500.1544 1675.1702)">
<path d="M103.29778 -121.61721 L12.994969 -227.7569 L6.7260007 -222.42331 L-13.467064 -205.24321 L-44.48278 -178.85529 L45.820031 -72.715598 L76.835748 -99.103525 L97.028812 -116.28363 L103.29778 -121.61721 Z "  fill="#828282" fill-rule="evenodd" stroke="#000000" fill-opacity="0" stroke-opacity="1"  stroke-width="1" stroke-linecap="round" stroke-linejoin="round" stroke-miterlimit="10" />
</g>
</g>
<g clip-path="url(#cp_2)">
<g transform="matrix(4.1666667 0 0 -4.1666667 2500.1544 1675.1702)">
<path d="M-44.48278 -178.85529 L-3.8845034 -213.39598 L-16.882888 -228.67396 L-57.481164 -194.13327 L-44.48278 -178.85529 Z "  fill="#828282" fill-rule="evenodd" stroke="#000000" fill-opacity="0" stroke-opacity="1"  stroke-width="1" stroke-linecap="round" stroke-linejoin="round" stroke-miterlimit="10" />
</g>
</g>
<g clip-path="url(#cp_2)">
<g transform="matrix(4.1666667 0 0 -4.1666667 2500.1544 1675.1702)">
<path d="M-225.89389 -78.170332 L-131.73097 -158.2834 L-119.99192 -144.48561 L-98.106946 -163.10517 L-108.47027 -175.28596 L-66.547167 -210.9538 L-27.582821 -244.10436 L-111.77358 -343.0601 L-150.73793 -309.90954 L-150.91284 -310.11512 L-188.30196 -278.30475 L-194.67092 -285.79067 L-199.2049 -281.9332 L-211.81798 -271.2021 L-199.60862 -256.85152 L-186.99555 -267.58263 L-151.63853 -226.02487 L-155.34496 -222.87147 L-164.89516 -234.09655 L-184.7863 -217.17333 L-175.23609 -205.94825 L-267.68642 -127.29224 L-225.89389 -78.170332 Z "  fill="#828282" fill-rule="evenodd" stroke="#000000" fill-opacity="0" stroke-opacity="1"  stroke-width="1" stroke-linecap="round" stroke-linejoin="round" stroke-miterlimit="10" />
</g>
</g>
<g clip-path="url(#cp_2)">
<g transform="matrix(4.1666667 0 0 -4.1666667 2500.1544 1675.1702)">
<path d="M-151.5741 -348.15531 L-129.34163 -367.07052 L-139.93241 -379.51865 L-162.16488 -360.60344 L-170.0644 -369.88835 L-193.26091 -350.15294 L-170.99445 -323.9815 L-147.79794 -343.71691 L-151.5741 -348.15531 Z "  fill="#828282" fill-rule="evenodd" stroke="#000000" fill-opacity="0" stroke-opacity="1"  stroke-width="1" stroke-linecap="round" stroke-linejoin="round" stroke-miterlimit="10" />
</g>
</g>
<g clip-path="url(#cp_2)">
<g transform="matrix(4.1666667 0 0 -4.1666667 2500.1544 1675.1702)">
<path d="M-348.31439 -218.23466 L-321.71793 -186.97385 L-302.93885 -202.95095 L-329.5353 -234.21176 L-348.31439 -218.23466 Z "  fill="#828282" fill-rule="evenodd" stroke="#000000" fill-opacity="0" stroke-opacity="1"  stroke-width="1" stroke-linecap="round" stroke-linejoin="round" stroke-miterlimit="10" />
</g>
</g>
<g clip-path="url(#cp_2)">
<g transform="matrix(4.1666667 0 0 -4.1666667 2500.1544 1675.1702)">
<path d="M-369.43023 -200.26947 L-342.83378 -169.00865 L-321.71793 -186.97385 L-348.31439 -218.23466 L-369.43023 -200.26947 Z "  fill="#828282" fill-rule="evenodd" stroke="#000000" fill-opacity="0" stroke-opacity="1"  stroke-width="1" stroke-linecap="round" stroke-linejoin="round" stroke-miterlimit="10" />
</g>
</g>
<g clip-path="url(#cp_2)">
<g transform="matrix(4.1666667 0 0 -4.1666667 2500.1544 1675.1702)">
<path d="M172.53968 342.61564 L154.30393 321.18179 L163.63073 313.24662 L118.81658 260.57319 L81.544215 292.28422 L126.35836 344.95766 L136.92295 335.96939 L155.1587 357.40324 L172.53968 342.61564 Z "  fill="#828282" fill-rule="evenodd" stroke="#000000" fill-opacity="0" stroke-opacity="1"  stroke-width="1" stroke-linecap="round" stroke-linejoin="round" stroke-miterlimit="10" />
</g>
</g>
<g clip-path="url(#cp_2)">
<g transform="matrix(4.1666667 0 0 -4.1666667 2500.1544 1675.1702)">
<path d="M239.78165 221.36477 L205.13134 180.63765 L192.84933 191.08709 L187.9465 185.32442 L167.20254 202.97322 L172.10537 208.73588 L159.06163 219.8334 L193.71194 260.56051 L239.78165 221.36477 Z "  fill="#828282" fill-rule="evenodd" stroke="#000000" fill-opacity="0" stroke-opacity="1"  stroke-width="1" stroke-linecap="round" stroke-linejoin="round" stroke-miterlimit="10" />
</g>
</g>
<g clip-path="url(#cp_2)">
<g transform="matrix(4.1666667 0 0 -4.1666667 2500.1544 1675.1702)">
<path d="M-112.57783 -150.79345 L-156.48945 -113.43379 L-117.04099 -67.067044 L-73.129368 -104.4267 L-112.57783 -150.79345 Z "  fill="#828282" fill-rule="evenodd" stroke="#000000" fill-opacity="0" stroke-opacity="1"  stroke-width="1" stroke-linecap="round" stroke-linejoin="round" stroke-miterlimit="10" />
</g>
</g>
<g clip-path="url(#cp_2)">
<g transform="matrix(4.1666667 0 0 -4.1666667 2500.1544 1675.1702)">
<path d="M-37.192242 -146.56862 L-70.931954 -186.22544 L-79.244586 -179.15312 L-112.57783 -150.79345 L-37.891656 -63.00917 L-4.5584076 -91.368835 L-45.504874 -139.4963 L-37.192242 -146.56862 Z "  fill="#828282" fill-rule="evenodd" stroke="#000000" fill-opacity="0" stroke-opacity="1"  stroke-width="1" stroke-linecap="round" stroke-linejoin="round" stroke-miterlimit="10" />
</g>
</g>
<g clip-path="url(#cp_2)">
<g transform="matrix(4.1666667 0 0 -4.1666667 2500.1544 1675.1702)">
<path d="M133.96576 21.641754 L127.01844 13.476038 L117.53966 2.3349219 L128.92786 -7.3540693 L95.303724 -46.87505 L67.925006 -23.581453 L101.54915 15.939528 L106.83138 11.445445 L116.31015 22.586561 L120.94586 18.642538 L127.89319 26.808254 L133.96576 21.641754 Z "  fill="#828282" fill-rule="evenodd" stroke="#000000" fill-opacity="0" stroke-opacity="1"  stroke-width="1" stroke-linecap="round" stroke-linejoin="round" stroke-miterlimit="10" />
</g>
</g>
<g clip-path="url(#cp_2)">
<g transform="matrix(4.1666667 0 0 -4.1666667 2500.1544 1675.1702)">
<path d="M39.868674 -3.3130654 L52.650541 11.710424 L67.305463 -0.75786868 L54.523596 -15.781358 L39.868674 -3.3130654 Z "  fill="#828282" fill-rule="evenodd" stroke="#000000" fill-opacity="0" stroke-opacity="1"  stroke-width="1" stroke-linecap="round" stroke-linejoin="round" stroke-miterlimit="10" />
</g>
</g>
<g clip-path="url(#cp_2)">
<g transform="matrix(4.1666667 0 0 -4.1666667 2500.1544 1675.1702)">
<path d="M9.3283306 221.08277 L38.599433 196.17915 L6.0302303 157.89812 L-23.240873 182.80174 L9.3283306 221.08277 Z "  fill="#828282" fill-rule="evenodd" stroke="#000000" fill-opacity="0" stroke-opacity="1"  stroke-width="1" stroke-linecap="round" stroke-linejoin="round" stroke-miterlimit="10" />
</g>
</g>
<g clip-path="url(#cp_2)">
<g transform="matrix(4.1666667 0 0 -4.1666667 2500.1544 1675.1702)">
<path d="M34.079027 200.02508 L70.252336 242.54229 L104.45249 213.44507 L68.279178 170.92786 L34.079027 200.02508 Z "  fill="#828282" fill-rule="evenodd" stroke="#000000" fill-opacity="0" stroke-opacity="1"  stroke-width="1" stroke-linecap="round" stroke-linejoin="round" stroke-miterlimit="10" />
</g>
</g>
<g clip-path="url(#cp_2)">
<g transform="matrix(4.1666667 0 0 -4.1666667 2500.1544 1675.1702)">
<path d="M103.75815 204.41869 L130.2162 181.90839 L139.95575 193.35602 L155.31267 180.29048 L145.57311 168.84285 L162.85534 154.13927 L133.26747 119.36242 L74.170281 169.64184 L103.75815 204.41869 Z "  fill="#828282" fill-rule="evenodd" stroke="#000000" fill-opacity="0" stroke-opacity="1"  stroke-width="1" stroke-linecap="round" stroke-linejoin="round" stroke-miterlimit="10" />
</g>
</g>
<g clip-path="url(#cp_2)">
<g transform="matrix(4.1666667 0 0 -4.1666667 2500.1544 1675.1702)">
<path d="M173.43444 144.94237 L187.28574 133.15778 L188.98801 135.15858 L197.77283 127.68452 L196.07057 125.68373 L203.1042 119.69956 L161.90887 71.279586 L153.13171 78.747122 L149.58439 74.577686 L140.45081 82.348465 L143.99813 86.5179 L132.2391 96.52239 L173.43444 144.94237 Z "  fill="#828282" fill-rule="evenodd" stroke="#000000" fill-opacity="0" stroke-opacity="1"  stroke-width="1" stroke-linecap="round" stroke-linejoin="round" stroke-miterlimit="10" />
</g>
</g>
<g clip-path="url(#cp_2)">
<g transform="matrix(4.1666667 0 0 -4.1666667 2500.1544 1675.1702)">
<path d="M54.584737 -22.705569 L27.203861 -54.888372 L5.3667369 -36.309518 L-19.511109 -15.143643 L7.9396568 17.121307 L21.009517 32.483296 L45.887362 11.317421 L32.817502 -4.0445683 L32.747612 -4.1267152 L54.584737 -22.705569 Z "  fill="#828282" fill-rule="evenodd" stroke="#000000" fill-opacity="0" stroke-opacity="1"  stroke-width="1" stroke-linecap="round" stroke-linejoin="round" stroke-miterlimit="10" />
</g>
</g>
<g clip-path="url(#cp_2)">
<g transform="matrix(4.1666667 0 0 -4.1666667 2500.1544 1675.1702)">
<path d="M-19.511109 -15.143643 L-44.5836 6.1878352 L-6.409293 51.05697 L18.663198 29.725492 L-19.511109 -15.143643 Z "  fill="#828282" fill-rule="evenodd" stroke="#000000" fill-opacity="0" stroke-opacity="1"  stroke-width="1" stroke-linecap="round" stroke-linejoin="round" stroke-miterlimit="10" />
</g>
</g>
<g clip-path="url(#cp_2)">
<g transform="matrix(4.1666667 0 0 -4.1666667 2500.1544 1675.1702)">
<path d="M2.4766552 43.496875 L7.8549601 49.818401 L23.802714 36.250178 L18.424409 29.928651 L2.4766552 43.496875 Z "  fill="#828282" fill-rule="evenodd" stroke="#000000" fill-opacity="0" stroke-opacity="1"  stroke-width="1" stroke-linecap="round" stroke-linejoin="round" stroke-miterlimit="10" />
</g>
</g>
<g clip-path="url(#cp_2)">
<g transform="matrix(4.1666667 0 0 -4.1666667 2500.1544 1675.1702)">
<path d="M-79.701278 76.091942 L-65.051538 63.628058 L-75.202708 51.696623 L-89.852449 64.160507 L-79.701278 76.091942 Z "  fill="#828282" fill-rule="evenodd" stroke="#000000" fill-opacity="0" stroke-opacity="1"  stroke-width="1" stroke-linecap="round" stroke-linejoin="round" stroke-miterlimit="10" />
</g>
</g>
<g clip-path="url(#cp_2)">
<g transform="matrix(4.1666667 0 0 -4.1666667 2500.1544 1675.1702)">
<path d="M-96.941202 51.149329 L-127.52071 15.206931 L-139.46894 25.372392 L-139.48256 25.356382 L-151.46837 35.553809 L-120.87524 71.512218 L-111.47708 82.558576 L-101.32591 94.490011 L-79.701278 76.091942 L-89.852449 64.160507 L-87.672512 62.305834 L-97.070667 51.259476 L-96.941202 51.149329 Z "  fill="#828282" fill-rule="evenodd" stroke="#000000" fill-opacity="0" stroke-opacity="1"  stroke-width="1" stroke-linecap="round" stroke-linejoin="round" stroke-miterlimit="10" />
</g>
</g>
<g clip-path="url(#cp_2)">
<g transform="matrix(4.1666667 0 0 -4.1666667 2500.1544 1675.1702)">
<path d="M35.574943 128.2856 L12.213027 100.82658 L-6.2861244 116.56551 L17.075792 144.02453 L35.574943 128.2856 Z "  fill="#828282" fill-rule="evenodd" stroke="#000000" fill-opacity="0" stroke-opacity="1"  stroke-width="1" stroke-linecap="round" stroke-linejoin="round" stroke-miterlimit="10" />
</g>
</g>
<g clip-path="url(#cp_2)">
<g transform="matrix(4.1666667 0 0 -4.1666667 2500.1544 1675.1702)">
<path d="M-106.55442 -24.829462 L-128.84183 -51.067559 L-158.82996 -25.594768 L-136.54255 0.64332883 L-106.55442 -24.829462 Z "  fill="#828282" fill-rule="evenodd" stroke="#000000" fill-opacity="0" stroke-opacity="1"  stroke-width="1" stroke-linecap="round" stroke-linejoin="round" stroke-miterlimit="10" />
</g>
</g>
<g clip-path="url(#cp_2)">
<g transform="matrix(4.1666667 0 0 -4.1666667 2500.1544 1675.1702)">
<path d="M-179.04421 -26.23278 L-140.02364 -59.377988 L-164.0104 -87.616673 L-162.8015 -88.643548 L-166.54777 -93.053879 L-193.12877 -70.475201 L-189.3825 -66.064871 L-203.03097 -54.471465 L-206.43939 -51.576258 L-196.51281 -39.890088 L-193.1044 -42.785295 L-179.04421 -26.23278 Z "  fill="#828282" fill-rule="evenodd" stroke="#000000" fill-opacity="0" stroke-opacity="1"  stroke-width="1" stroke-linecap="round" stroke-linejoin="round" stroke-miterlimit="10" />
</g>
</g>
<g clip-path="url(#cp_2)">
<g transform="matrix(4.1666667 0 0 -4.1666667 2500.1544 1675.1702)">
<path d="M43.955539 211.63368 L30.480113 223.09847 L40.186882 234.50757 L53.662308 223.04278 L43.955539 211.63368 Z "  fill="#828282" fill-rule="evenodd" stroke="#000000" fill-opacity="0" stroke-opacity="1"  stroke-width="1" stroke-linecap="round" stroke-linejoin="round" stroke-miterlimit="10" />
</g>
</g>
<g clip-path="url(#cp_2)">
<g transform="matrix(4.1666667 0 0 -4.1666667 2500.1544 1675.1702)">
<path d="M-214.29164 -300.3518 L-227.67064 -316.07714 L-234.91308 -309.91532 L-221.53408 -294.18998 L-214.29164 -300.3518 Z "  fill="#828282" fill-rule="evenodd" stroke="#000000" fill-opacity="0" stroke-opacity="1"  stroke-width="1" stroke-linecap="round" stroke-linejoin="round" stroke-miterlimit="10" />
</g>
</g>
<g clip-path="url(#cp_2)">
<g transform="matrix(4.1666667 0 0 -4.1666667 2500.1544 1675.1702)">
<path d="M-240.88647 -304.83321 L-261.05128 -287.67715 L-246.24059 -270.26903 L-226.07578 -287.42509 L-240.88647 -304.83321 Z "  fill="#828282" fill-rule="evenodd" stroke="#000000" fill-opacity="0" stroke-opacity="1"  stroke-width="1" stroke-linecap="round" stroke-linejoin="round" stroke-miterlimit="10" />
</g>
</g>
<g clip-path="url(#cp_2)">
<g transform="matrix(4.1666667 0 0 -4.1666667 2500.1544 1675.1702)">
<path d="M154.06933 -49.94359 L139.31853 -67.28132 L120.89918 -51.610288 L135.64999 -34.272558 L154.06933 -49.94359 Z "  fill="#828282" fill-rule="evenodd" stroke="#000000" fill-opacity="0" stroke-opacity="1"  stroke-width="1" stroke-linecap="round" stroke-linejoin="round" stroke-miterlimit="10" />
</g>
</g>
<g clip-path="url(#cp_2)">
<g transform="matrix(4.1666667 0 0 -4.1666667 2500.1544 1675.1702)">
<path d="M-34.658126 137.15205 L5.6565559 102.85668 L5.5091932 102.68345 L7.9949914 100.5688 L12.101368 97.075541 L6.2665035 90.216578 L20.134725 78.421992 L10.356558 66.924702 L15.197736 62.805865 L5.7046215 51.647893 L0.86344275 55.766729 L0.88266505 55.787942 L-1.0146277 57.401544 L-9.7470975 47.133797 L-17.616257 53.825935 L-21.53409 49.221012 L-27.267237 42.482413 L-33.837874 48.072659 L-41.996813 38.482844 L-60.946211 54.604842 L-52.787272 64.194657 L-49.392599 68.184671 L-63.993654 80.605078 L-66.49446 82.732493 L-75.31635 72.362241 L-84.909163 80.52277 L-76.087273 90.893022 L-74.882313 89.867972 L-69.071874 96.698223 L-75.238405 101.94404 L-46.96191 135.18345 L-40.795378 129.93763 L-34.658126 137.15205 Z M-48.928038 98.314916 L-19.502015 73.282435 L-11.038437 83.231486 L-40.46446 108.26397 L-48.928038 98.314916 Z M-29.744034 56.206063 L-25.638175 52.712735 L-21.72079 57.317133 L-25.827167 60.810394 L-29.744034 56.206063 Z "  fill="#828282" fill-rule="evenodd" stroke="#000000" fill-opacity="0" stroke-opacity="1"  stroke-width="1" stroke-linecap="round" stroke-linejoin="round" stroke-miterlimit="10" />
</g>
</g>
<g clip-path="url(#cp_2)">
<g transform="matrix(4.1666667 0 0 -4.1666667 2500.1544 1675.1702)">
<path d="M-13.716349 125.10998 L-39.366228 146.9327 L-17.59914 172.51719 L8.050739 150.69448 L-13.716349 125.10998 Z "  fill="#828282" fill-rule="evenodd" stroke="#000000" fill-opacity="0" stroke-opacity="1"  stroke-width="1" stroke-linecap="round" stroke-linejoin="round" stroke-miterlimit="10" />
</g>
</g>
<g clip-path="url(#cp_2)">
<g transform="matrix(4.1666667 0 0 -4.1666667 2500.1544 1675.1702)">
<path d="M277.36926 141.10213 L304.87239 118.13248 L284.5952 93.853205 L257.09206 116.82285 L277.36926 141.10213 Z "  fill="#828282" fill-rule="evenodd" stroke="#000000" fill-opacity="0" stroke-opacity="1"  stroke-width="1" stroke-linecap="round" stroke-linejoin="round" stroke-miterlimit="10" />
</g>
</g>
<g clip-path="url(#cp_2)">
<g transform="matrix(4.1666667 0 0 -4.1666667 2500.1544 1675.1702)">
<path d="M-69.763996 44.240635 L-74.789699 48.516464 L-69.206516 55.078799 L-64.180813 50.80297 L-69.763996 44.240635 Z "  fill="#828282" fill-rule="evenodd" stroke="#000000" fill-opacity="0" stroke-opacity="1"  stroke-width="1" stroke-linecap="round" stroke-linejoin="round" stroke-miterlimit="10" />
</g>
</g>
<g clip-path="url(#cp_2)">
<g transform="matrix(4.1666667 0 0 -4.1666667 2500.1544 1675.1702)">
<path d="M-40.33308 2.5715267 L-71.996983 -34.64544 L-109.63527 -2.6230779 L-77.971372 34.593889 L-60.946211 54.604842 L-27.558438 26.198788 L-44.5836 6.1878352 L-40.33308 2.5715267 Z "  fill="#828282" fill-rule="evenodd" stroke="#000000" fill-opacity="0" stroke-opacity="1"  stroke-width="1" stroke-linecap="round" stroke-linejoin="round" stroke-miterlimit="10" />
</g>
</g>
<g clip-path="url(#cp_2)">
<g transform="matrix(4.1666667 0 0 -4.1666667 2500.1544 1675.1702)">
<path d="M127.89319 26.808254 L121.78123 19.624413 L85.584562 50.420256 L91.696517 57.604097 L124.38095 96.020571 L149.58439 74.577686 L160.57762 65.224728 L127.89319 26.808254 Z "  fill="#828282" fill-rule="evenodd" stroke="#000000" fill-opacity="0" stroke-opacity="1"  stroke-width="1" stroke-linecap="round" stroke-linejoin="round" stroke-miterlimit="10" />
</g>
</g>
<g clip-path="url(#cp_2)">
<g transform="matrix(4.1666667 0 0 -4.1666667 2500.1544 1675.1702)">
<path d="M101.54915 15.939528 L78.929271 -10.647313 L52.650541 11.710424 L75.270416 38.297265 L85.584562 50.420256 L110.04722 29.607622 L99.733071 17.48463 L101.54915 15.939528 Z "  fill="#828282" fill-rule="evenodd" stroke="#000000" fill-opacity="0" stroke-opacity="1"  stroke-width="1" stroke-linecap="round" stroke-linejoin="round" stroke-miterlimit="10" />
</g>
</g>
<g clip-path="url(#cp_2)">
<g transform="matrix(4.1666667 0 0 -4.1666667 2500.1544 1675.1702)">
<path d="M-158.82996 -25.594768 L-188.94447 -0.014618665 L-172.9168 18.854143 L-142.80228 -6.7260064 L-158.82996 -25.594768 Z "  fill="#828282" fill-rule="evenodd" stroke="#000000" fill-opacity="0" stroke-opacity="1"  stroke-width="1" stroke-linecap="round" stroke-linejoin="round" stroke-miterlimit="10" />
</g>
</g>
<g clip-path="url(#cp_2)">
<g transform="matrix(4.1666667 0 0 -4.1666667 2500.1544 1675.1702)">
<path d="M253.15263 120.11293 L284.5952 93.853205 L243.36547 44.486029 L217.73499 65.891703 L253.15263 120.11293 Z "  fill="#828282" fill-rule="evenodd" stroke="#000000" fill-opacity="0" stroke-opacity="1"  stroke-width="1" stroke-linecap="round" stroke-linejoin="round" stroke-miterlimit="10" />
</g>
</g>
</g>
<!-- Begin_Label-->
<clipPath id="cp_3">
<path d="M4960.62 3507.867 L4960.62 0 L0 0 L0 3507.867 Z " />
</clipPath>
<g clip-path="url(#cp_3)">
<g id="EmbdFile__1" transform="matrix(1 0 0 1 -269.84901 -379.85708)">
<g>
<g transform="scale(1,1)">
</g>
</g>
</g>
</g>
<!-- End_Label-->
<g transform="matrix(4.1666667 0 0 -4.1666667 0 3507.867)">
<path d=""  stroke="#000000" fill="none" stroke-opacity="1" stroke-width="1" stroke-linecap="round" stroke-linejoin="miter" stroke-miterlimit="10" />
</g>
</g>
</g>
</svg>
