<svg width="1440" height="959" viewBox="0 0 1440 959" fill="none" xmlns="http://www.w3.org/2000/svg">
<rect x="-2.50015" y="629.5" width="156" height="206" transform="matrix(0 -1 1 0 -632 627)" stroke="black"/>
<path d="M88.2271 554.864H111.5V557.682H88.2271V554.864ZM111.738 544.77C111.738 545.77 111.54 546.67 111.142 547.472C110.744 548.273 110.199 548.915 109.506 549.398C108.812 549.881 108.023 550.145 107.136 550.19V548.145C107.926 548.065 108.579 547.707 109.096 547.071C109.608 546.429 109.863 545.662 109.863 544.77C109.863 544.054 109.696 543.418 109.361 542.861C109.025 542.298 108.565 541.858 107.98 541.54C107.389 541.216 106.721 541.054 105.977 541.054C105.216 541.054 104.537 541.222 103.94 541.557C103.338 541.886 102.863 542.341 102.517 542.92C102.17 543.5 101.994 544.162 101.988 544.906C101.983 545.44 102.065 545.989 102.236 546.551C102.4 547.114 102.613 547.577 102.875 547.94L102.636 549.918L94.0453 548.861V539.793H95.9203V547.088L101.068 547.702V547.599C100.784 547.241 100.548 546.793 100.361 546.253C100.173 545.713 100.079 545.151 100.079 544.565C100.079 543.497 100.335 542.545 100.846 541.71C101.352 540.869 102.045 540.21 102.926 539.733C103.807 539.25 104.812 539.009 105.943 539.009C107.057 539.009 108.051 539.259 108.926 539.759C109.795 540.253 110.483 540.935 110.988 541.804C111.488 542.673 111.738 543.662 111.738 544.77Z" fill="black"/>
<path d="M-2.50015 629.5H47.4998V626.375H-2.50015V629.5Z" fill="white" stroke="black"/>
<path d="M47.4998 626.375C47.4998 598.762 25.1123 576.375 -2.50015 576.375V626.375" stroke="black" stroke-miterlimit="10"/>
<rect x="203.5" y="629.5" width="156" height="206" transform="rotate(-90 203.5 629.5)" stroke="black"/>
<path d="M294.227 554.864H317.5V557.682H294.227V554.864ZM317.738 544.429C317.727 545.145 317.591 545.861 317.329 546.577C317.068 547.293 316.628 547.946 316.008 548.537C315.383 549.128 314.54 549.602 313.477 549.96C312.409 550.318 311.068 550.497 309.454 550.497C307.909 550.497 306.54 550.352 305.346 550.062C304.148 549.773 303.139 549.352 302.321 548.801C301.497 548.25 300.872 547.585 300.446 546.807C300.02 546.023 299.807 545.139 299.807 544.156C299.807 543.179 300.003 542.31 300.395 541.548C300.781 540.781 301.321 540.156 302.014 539.673C302.707 539.19 303.506 538.878 304.409 538.736V540.815C303.625 541.009 302.974 541.384 302.457 541.94C301.94 542.497 301.682 543.236 301.682 544.156C301.682 545.509 302.27 546.574 303.446 547.352C304.622 548.125 306.273 548.514 308.398 548.52V548.384C307.915 548.065 307.503 547.688 307.162 547.25C306.815 546.807 306.548 546.318 306.361 545.784C306.173 545.25 306.079 544.685 306.079 544.088C306.079 543.088 306.329 542.173 306.829 541.344C307.324 540.514 308.008 539.849 308.883 539.349C309.753 538.849 310.75 538.599 311.875 538.599C312.954 538.599 313.943 538.841 314.841 539.324C315.733 539.807 316.443 540.486 316.971 541.361C317.494 542.23 317.75 543.253 317.738 544.429ZM315.863 544.429C315.863 543.713 315.685 543.071 315.327 542.503C314.969 541.929 314.488 541.477 313.886 541.148C313.284 540.812 312.613 540.645 311.875 540.645C311.153 540.645 310.497 540.807 309.906 541.131C309.31 541.449 308.835 541.889 308.483 542.452C308.131 543.009 307.954 543.645 307.954 544.361C307.954 544.901 308.062 545.403 308.278 545.869C308.488 546.335 308.778 546.744 309.148 547.097C309.517 547.443 309.94 547.716 310.417 547.915C310.889 548.114 311.386 548.213 311.909 548.213C312.602 548.213 313.25 548.051 313.852 547.727C314.454 547.398 314.94 546.949 315.31 546.381C315.679 545.807 315.863 545.156 315.863 544.429Z" fill="black"/>
<path d="M203.5 629.5H253.5V626.375H203.5V629.5Z" fill="white" stroke="black"/>
<path d="M253.5 626.375C253.5 598.762 231.112 576.375 203.5 576.375V626.375" stroke="black" stroke-miterlimit="10"/>
<rect x="409.5" y="629.5" width="156" height="206" transform="rotate(-90 409.5 629.5)" stroke="black"/>
<path d="M500.227 554.864H523.5V557.682H500.227V554.864ZM523.5 549.679L508.057 541.872H507.92V550.872H506.045V539.69H508.023L523.5 547.463V549.679Z" fill="black"/>
<path d="M409.5 629.5H459.5V626.375H409.5V629.5Z" fill="white" stroke="black"/>
<path d="M459.5 626.375C459.5 598.762 437.112 576.375 409.5 576.375V626.375" stroke="black" stroke-miterlimit="10"/>
<path d="M88.2271 820.864H111.5V823.682H88.2271V820.864ZM111.5 816.224H109.966L103.659 810.463C102.92 809.787 102.278 809.23 101.733 808.793C101.182 808.355 100.665 808.031 100.182 807.821C99.693 807.605 99.1817 807.497 98.6476 807.497C98.0339 807.497 97.5027 807.645 97.0538 807.94C96.605 808.23 96.2584 808.628 96.0141 809.134C95.7697 809.639 95.6476 810.207 95.6476 810.838C95.6476 811.509 95.7868 812.094 96.0652 812.594C96.3379 813.088 96.7214 813.472 97.2158 813.744C97.7101 814.011 98.2896 814.145 98.9544 814.145V816.156C97.9317 816.156 97.0339 815.92 96.2612 815.449C95.4885 814.977 94.8862 814.335 94.4544 813.523C94.0226 812.705 93.8067 811.787 93.8067 810.77C93.8067 809.747 94.0226 808.841 94.4544 808.051C94.8862 807.261 95.4686 806.642 96.2016 806.193C96.9345 805.744 97.7498 805.52 98.6476 805.52C99.2896 805.52 99.9175 805.636 100.531 805.869C101.139 806.097 101.818 806.494 102.568 807.062C103.312 807.625 104.221 808.406 105.295 809.406L109.488 813.327H109.625V805.213H111.5V816.224Z" fill="black"/>
<path d="M-1.50015 736.375H48.4998V739.5H-1.50015V736.375Z" fill="white" stroke="black"/>
<path d="M48.4998 739.5C48.4998 767.113 26.1123 789.5 -1.50015 789.5L-1.50015 739.5" stroke="black" stroke-miterlimit="10"/>
<rect x="-2.50015" y="892.5" width="156" height="206" transform="matrix(0 -1 1 0 -895 890)" stroke="black"/>
<path d="M294.227 820.864H317.5V823.682H294.227V820.864ZM317.738 810.327C317.738 811.452 317.545 812.455 317.159 813.335C316.773 814.21 316.236 814.906 315.548 815.423C314.855 815.935 314.051 816.213 313.136 816.259V814.111C313.699 814.065 314.185 813.872 314.594 813.531C314.997 813.19 315.31 812.744 315.531 812.193C315.753 811.642 315.863 811.031 315.863 810.361C315.863 809.611 315.733 808.946 315.471 808.366C315.21 807.787 314.846 807.332 314.381 807.003C313.915 806.673 313.375 806.509 312.761 806.509C312.119 806.509 311.554 806.668 311.065 806.986C310.571 807.304 310.185 807.77 309.906 808.384C309.628 808.997 309.488 809.747 309.488 810.634V812.031H307.613V810.634C307.613 809.94 307.488 809.332 307.238 808.81C306.988 808.281 306.636 807.869 306.182 807.574C305.727 807.273 305.193 807.122 304.579 807.122C303.988 807.122 303.474 807.253 303.037 807.514C302.599 807.776 302.258 808.145 302.014 808.622C301.77 809.094 301.648 809.651 301.648 810.293C301.648 810.895 301.758 811.463 301.98 811.997C302.196 812.526 302.511 812.957 302.926 813.293C303.335 813.628 303.829 813.81 304.409 813.838V815.884C303.494 815.849 302.693 815.574 302.006 815.057C301.312 814.54 300.773 813.864 300.386 813.028C300 812.187 299.807 811.264 299.807 810.259C299.807 809.179 300.025 808.253 300.463 807.48C300.895 806.707 301.466 806.114 302.176 805.699C302.886 805.284 303.653 805.077 304.477 805.077C305.46 805.077 306.298 805.335 306.991 805.852C307.685 806.364 308.165 807.06 308.432 807.94H308.568C308.75 806.838 309.219 805.977 309.974 805.358C310.724 804.739 311.653 804.429 312.761 804.429C313.71 804.429 314.562 804.687 315.318 805.205C316.068 805.716 316.659 806.415 317.091 807.301C317.523 808.187 317.738 809.196 317.738 810.327Z" fill="black"/>
<path d="M204.5 736.375H254.5V739.5H204.5V736.375Z" fill="white" stroke="black"/>
<path d="M254.5 739.5C254.5 767.113 232.112 789.5 204.5 789.5L204.5 739.5" stroke="black" stroke-miterlimit="10"/>
<rect x="203.5" y="892.5" width="156" height="206" transform="rotate(-90 203.5 892.5)" stroke="black"/>
<path d="M500.227 820.864H523.5V823.682H500.227V820.864ZM519.92 816.634H518.182L506.045 808.963V807.702H508.738V808.554L517.909 814.349H518.045V804.02H519.92V816.634ZM523.5 808.418H519.392H518.582H506.045V806.406H523.5V808.418Z" fill="black"/>
<path d="M410.5 736.375H460.5V739.5H410.5V736.375Z" fill="white" stroke="black"/>
<path d="M460.5 739.5C460.5 767.113 438.112 789.5 410.5 789.5V739.5" stroke="black" stroke-miterlimit="10"/>
<rect x="409.5" y="892.5" width="156" height="206" transform="rotate(-90 409.5 892.5)" stroke="black"/>
<path d="M615.5 629.5L615.5 892.5L1017.5 892.5V629.5" stroke="black"/>
<path d="M811.5 763.773C810.735 764.023 810.049 764.352 809.443 764.761C808.829 765.163 808.307 765.644 807.875 766.205C807.443 766.758 807.114 767.386 806.886 768.091C806.659 768.795 806.545 769.568 806.545 770.409C806.545 771.788 806.901 773.042 807.614 774.17C808.326 775.299 809.375 776.197 810.761 776.864C812.148 777.53 813.848 777.864 815.864 777.864C817.879 777.864 819.579 777.527 820.966 776.852C822.352 776.178 823.401 775.265 824.114 774.114C824.826 772.962 825.182 771.667 825.182 770.227C825.182 768.894 824.898 767.72 824.329 766.705C823.754 765.682 822.943 764.886 821.898 764.318C820.845 763.742 819.606 763.455 818.182 763.455L818.364 762.591V769.591H815.864V760.727H818.364C820.28 760.727 821.947 761.136 823.364 761.955C824.78 762.765 825.879 763.886 826.659 765.318C827.432 766.742 827.818 768.379 827.818 770.227C827.818 772.288 827.333 774.098 826.364 775.659C825.394 777.212 824.015 778.424 822.227 779.295C820.439 780.159 818.318 780.591 815.864 780.591C814.023 780.591 812.367 780.345 810.898 779.852C809.42 779.352 808.163 778.648 807.125 777.739C806.087 776.83 805.292 775.754 804.739 774.511C804.185 773.269 803.909 771.902 803.909 770.409C803.909 769.182 804.095 768.038 804.466 766.977C804.829 765.909 805.348 764.958 806.023 764.125C806.689 763.284 807.489 762.583 808.42 762.023C809.345 761.462 810.371 761.076 811.5 760.864V763.773Z" fill="black"/>
<path d="M1017.5 629.5V411.5L816.5 411.5L816.5 499.778" stroke="black"/>
<path d="M928.5 557.054H905.227V543.1H907.727V554.236H915.591V544.145H918.091V554.236H928.5V557.054Z" fill="black"/>
<path d="M727.5 392.682H704.227V389.864H714.591V377.455H704.227V374.636H727.5V377.455H717.091V389.864H727.5V392.682Z" fill="black"/>
<path d="M615.5 629.5L615.5 57.5H816.5V312" stroke="black"/>
<rect x="722.5" y="270.5" width="16" height="94" transform="rotate(-90 722.5 270.5)" stroke="black"/>
<rect x="722.5" y="254.5" width="16" height="94" transform="rotate(-90 722.5 254.5)" stroke="black"/>
<rect x="722.5" y="238.5" width="16" height="94" transform="rotate(-90 722.5 238.5)" stroke="black"/>
<rect x="722.5" y="222.5" width="16" height="94" transform="rotate(-90 722.5 222.5)" stroke="black"/>
<rect x="722.5" y="206.5" width="16" height="94" transform="rotate(-90 722.5 206.5)" stroke="black"/>
<rect x="722.5" y="190.5" width="16" height="94" transform="rotate(-90 722.5 190.5)" stroke="black"/>
<path d="M709.5 190.5V174.5H684.5" stroke="black"/>
<rect x="722.5" y="174.5" width="16" height="94" transform="rotate(-90 722.5 174.5)" stroke="black"/>
<path d="M686 174.5H709.5V158.5H662.5" stroke="black"/>
<rect x="722.5" y="158.5" width="16" height="94" transform="rotate(-90 722.5 158.5)" stroke="black"/>
<path d="M662.5 158.5L709.5 158.5V142.5L638 142.5" stroke="black"/>
<rect x="722.5" y="142.5" width="16" height="94" transform="rotate(-90 722.5 142.5)" stroke="black"/>
<path d="M615.5 126.5L709.5 126.5V142.5L637.5 142.5" stroke="black"/>
<rect x="722.5" y="142.5" width="16" height="94" transform="rotate(-90 722.5 142.5)" stroke="black"/>
<rect x="615.5" y="126.5" width="16" height="94" transform="rotate(-90 615.5 126.5)" stroke="black"/>
<path d="M615.5 126.5L709.5 126.5V142.5L638.5 142.5" stroke="black"/>
<path d="M709 191L615 126.5" stroke="black" stroke-dasharray="10 10"/>
<path d="M615.5 110.5V57.5L816.5 57.5V126.5L722.5 126.5V110.5L615.5 110.5Z" stroke="black"/>
<path d="M777.5 82.5H778.5V81.5H777.5V82.5ZM662.5 82.5V81.5H661.5V82.5H662.5ZM662.5 160.679L668.273 150.679H656.726L662.5 160.679ZM777.5 300.5H778.5V82.5H777.5H776.5V300.5H777.5ZM777.5 82.5V81.5L662.5 81.5V82.5L662.5 83.5L777.5 83.5V82.5ZM662.5 82.5H661.5L661.5 151.679H662.5H663.5L663.5 82.5H662.5Z" fill="black"/>
<rect x="1017.5" y="892.5" width="263" height="228" transform="rotate(-90 1017.5 892.5)" stroke="black"/>
<path d="M1142.5 765.682H1119.23V751.636H1121.73V762.864H1129.59V752.364H1132.09V762.864H1140V751.455H1142.5V765.682Z" fill="black"/>
<path d="M1017.5 629.5V699.5H1021.87V629.5H1017.5Z" fill="white" stroke="black"/>
<path d="M1021.87 699.5C1060.53 699.5 1091.87 668.158 1091.87 629.5H1021.87" stroke="black" stroke-miterlimit="10"/>
<path d="M1245.5 804.5V716.029H1242.74V804.5H1245.5Z" fill="white" stroke="black"/>
<path d="M1245.5 760.265H1242.74M1242.74 760.265C1218.31 760.265 1198.5 740.458 1198.5 716.029H1242.74M1242.74 760.265C1218.31 760.265 1198.5 780.071 1198.5 804.5H1242.74" stroke="black" stroke-miterlimit="10"/>
<rect x="1017.5" y="629.5" width="218" height="228" transform="rotate(-90 1017.5 629.5)" stroke="black"/>
<path d="M1142.5 522.5V529.682H1119.23V522.182C1119.23 519.924 1119.69 517.992 1120.62 516.386C1121.55 514.78 1122.88 513.549 1124.61 512.693C1126.34 511.837 1128.41 511.409 1130.82 511.409C1133.24 511.409 1135.33 511.841 1137.08 512.705C1138.82 513.568 1140.16 514.826 1141.1 516.477C1142.03 518.129 1142.5 520.136 1142.5 522.5ZM1140 526.864V522.682C1140 520.758 1139.63 519.163 1138.89 517.898C1138.14 516.633 1137.09 515.689 1135.72 515.068C1134.34 514.447 1132.71 514.136 1130.82 514.136C1128.94 514.136 1127.32 514.443 1125.97 515.057C1124.6 515.67 1123.56 516.587 1122.83 517.807C1122.09 519.027 1121.73 520.545 1121.73 522.364V526.864H1140Z" fill="black"/>
<path d="M1245.5 481.5V411.5H1241.12V481.5H1245.5Z" fill="white" stroke="black"/>
<path d="M1241.12 481.5C1202.47 481.5 1171.12 450.158 1171.12 411.5L1241.12 411.5" stroke="black" stroke-miterlimit="10"/>
<rect x="1245.5" y="481.5" width="164" height="191" transform="rotate(-90 1245.5 481.5)" stroke="black"/>
<path d="M1245.5 317.5V387.5H1249.87V317.5H1245.5Z" fill="white" stroke="black"/>
<path d="M1249.87 387.5C1288.53 387.5 1319.87 356.158 1319.87 317.5H1249.87" stroke="black" stroke-miterlimit="10"/>
<path d="M1334.5 389.955V392.773C1333.69 392.939 1332.98 393.231 1332.36 393.648C1331.75 394.057 1331.23 394.557 1330.82 395.148C1330.39 395.731 1330.08 396.379 1329.86 397.091C1329.65 397.803 1329.55 398.545 1329.55 399.318C1329.55 400.727 1329.9 402.004 1330.61 403.148C1331.33 404.284 1332.37 405.189 1333.76 405.864C1335.15 406.53 1336.85 406.864 1338.86 406.864C1340.88 406.864 1342.58 406.53 1343.97 405.864C1345.35 405.189 1346.4 404.284 1347.11 403.148C1347.83 402.004 1348.18 400.727 1348.18 399.318C1348.18 398.545 1348.08 397.803 1347.86 397.091C1347.65 396.379 1347.34 395.731 1346.92 395.148C1346.5 394.557 1345.98 394.057 1345.36 393.648C1344.74 393.231 1344.03 392.939 1343.23 392.773V389.955C1344.42 390.167 1345.48 390.553 1346.42 391.114C1347.36 391.674 1348.16 392.371 1348.82 393.205C1349.47 394.038 1349.97 394.973 1350.31 396.011C1350.65 397.042 1350.82 398.144 1350.82 399.318C1350.82 401.303 1350.33 403.068 1349.36 404.614C1348.39 406.159 1347.02 407.375 1345.23 408.261C1343.44 409.148 1341.32 409.591 1338.86 409.591C1336.41 409.591 1334.29 409.148 1332.5 408.261C1330.71 407.375 1329.33 406.159 1328.36 404.614C1327.39 403.068 1326.91 401.303 1326.91 399.318C1326.91 398.144 1327.08 397.042 1327.42 396.011C1327.76 394.973 1328.26 394.038 1328.92 393.205C1329.57 392.371 1330.37 391.674 1331.31 391.114C1332.24 390.553 1333.3 390.167 1334.5 389.955Z" fill="black"/>
<path d="M816.5 57.5V158.5L1245.5 158.5V57.5" stroke="black"/>
<rect x="816.5" y="73.5" width="16" height="429" transform="rotate(-90 816.5 73.5)" stroke="black" stroke-dasharray="10 10"/>
<rect x="816.5" y="57.5" width="57" height="429" transform="rotate(-90 816.5 57.5)" stroke="black" stroke-dasharray="10 10"/>
<path d="M1078.5 158.5H1166.97V155.735H1078.5V158.5Z" fill="white" stroke="black"/>
<path d="M1122.74 158.5V155.735M1122.74 155.735C1122.74 131.306 1142.54 111.5 1166.97 111.5V155.735M1122.74 155.735C1122.74 131.306 1102.93 111.5 1078.5 111.5V155.735" stroke="black" stroke-miterlimit="10"/>
<path d="M858.5 158.5H946.97V155.735H858.5V158.5Z" fill="white" stroke="black"/>
<path d="M902.735 158.5V155.735M902.735 155.735C902.735 131.306 922.541 111.5 946.97 111.5V155.735M902.735 155.735C902.735 131.306 882.929 111.5 858.5 111.5V155.735" stroke="black" stroke-miterlimit="10"/>
<path d="M1017.5 114.727V117.682L994.227 109.136V106.227L1017.5 97.6818V100.636L997.909 107.591V107.773L1017.5 114.727ZM1008.41 113.636V101.727H1010.91V113.636H1008.41Z" fill="black"/>
<path d="M928.5 297.682H905.227V289.545C905.227 287.924 905.507 286.587 906.068 285.534C906.621 284.481 907.367 283.697 908.307 283.182C909.238 282.667 910.273 282.409 911.409 282.409C912.409 282.409 913.235 282.587 913.886 282.943C914.538 283.292 915.053 283.754 915.432 284.33C915.81 284.898 916.091 285.515 916.273 286.182H916.5C916.545 285.47 916.795 284.754 917.25 284.034C917.704 283.314 918.356 282.712 919.204 282.227C920.053 281.742 921.091 281.5 922.318 281.5C923.485 281.5 924.534 281.765 925.466 282.295C926.398 282.826 927.136 283.663 927.682 284.807C928.227 285.951 928.5 287.439 928.5 289.273V297.682ZM926 294.864V289.273C926 287.432 925.644 286.125 924.932 285.352C924.212 284.572 923.341 284.182 922.318 284.182C921.53 284.182 920.803 284.383 920.136 284.784C919.462 285.186 918.924 285.758 918.523 286.5C918.113 287.242 917.909 288.121 917.909 289.136V294.864H926ZM915.454 294.864V289.636C915.454 288.788 915.288 288.023 914.954 287.341C914.621 286.652 914.151 286.106 913.545 285.705C912.939 285.295 912.227 285.091 911.409 285.091C910.386 285.091 909.519 285.447 908.807 286.159C908.087 286.871 907.727 288 907.727 289.545V294.864H915.454Z" fill="black"/>
<path d="M1142.5 299.682H1119.23V291.545C1119.23 289.924 1119.51 288.587 1120.07 287.534C1120.62 286.481 1121.37 285.697 1122.31 285.182C1123.24 284.667 1124.27 284.409 1125.41 284.409C1126.41 284.409 1127.23 284.587 1127.89 284.943C1128.54 285.292 1129.05 285.754 1129.43 286.33C1129.81 286.898 1130.09 287.515 1130.27 288.182H1130.5C1130.55 287.47 1130.8 286.754 1131.25 286.034C1131.7 285.314 1132.36 284.712 1133.2 284.227C1134.05 283.742 1135.09 283.5 1136.32 283.5C1137.48 283.5 1138.53 283.765 1139.47 284.295C1140.4 284.826 1141.14 285.663 1141.68 286.807C1142.23 287.951 1142.5 289.439 1142.5 291.273V299.682ZM1140 296.864V291.273C1140 289.432 1139.64 288.125 1138.93 287.352C1138.21 286.572 1137.34 286.182 1136.32 286.182C1135.53 286.182 1134.8 286.383 1134.14 286.784C1133.46 287.186 1132.92 287.758 1132.52 288.5C1132.11 289.242 1131.91 290.121 1131.91 291.136V296.864H1140ZM1129.45 296.864V291.636C1129.45 290.788 1129.29 290.023 1128.95 289.341C1128.62 288.652 1128.15 288.106 1127.55 287.705C1126.94 287.295 1126.23 287.091 1125.41 287.091C1124.39 287.091 1123.52 287.447 1122.81 288.159C1122.09 288.871 1121.73 290 1121.73 291.545V296.864H1129.45Z" fill="black"/>
<path d="M816.5 411.5L1245.5 411.5V316.5M1245.5 158.5L816.5 158.5L816.5 316.5" stroke="black"/>
<path d="M1245.5 317.5L1436.5 317.5V57.5L1245.5 57.5" stroke="black"/>
<path d="M1350.5 184.682H1327.23V176.545C1327.23 174.924 1327.51 173.587 1328.07 172.534C1328.62 171.481 1329.37 170.697 1330.31 170.182C1331.24 169.667 1332.27 169.409 1333.41 169.409C1334.41 169.409 1335.23 169.587 1335.89 169.943C1336.54 170.292 1337.05 170.754 1337.43 171.33C1337.81 171.898 1338.09 172.515 1338.27 173.182H1338.5C1338.55 172.47 1338.8 171.754 1339.25 171.034C1339.7 170.314 1340.36 169.712 1341.2 169.227C1342.05 168.742 1343.09 168.5 1344.32 168.5C1345.48 168.5 1346.53 168.765 1347.47 169.295C1348.4 169.826 1349.14 170.663 1349.68 171.807C1350.23 172.951 1350.5 174.439 1350.5 176.273V184.682ZM1348 181.864V176.273C1348 174.432 1347.64 173.125 1346.93 172.352C1346.21 171.572 1345.34 171.182 1344.32 171.182C1343.53 171.182 1342.8 171.383 1342.14 171.784C1341.46 172.186 1340.92 172.758 1340.52 173.5C1340.11 174.242 1339.91 175.121 1339.91 176.136V181.864H1348ZM1337.45 181.864V176.636C1337.45 175.788 1337.29 175.023 1336.95 174.341C1336.62 173.652 1336.15 173.106 1335.55 172.705C1334.94 172.295 1334.23 172.091 1333.41 172.091C1332.39 172.091 1331.52 172.447 1330.81 173.159C1330.09 173.871 1329.73 175 1329.73 176.545V181.864H1337.45Z" fill="black"/>
<path d="M1436.5 130.029V218.5H1439.26V130.029H1436.5Z" fill="white" stroke="black"/>
<path d="M1436.5 174.265H1439.26M1439.26 174.265C1463.69 174.265 1483.5 194.071 1483.5 218.5H1439.26M1439.26 174.265C1463.69 174.265 1483.5 154.458 1483.5 130.029H1439.26" stroke="black" stroke-miterlimit="10"/>
<rect x="1435.5" y="314.5" width="257" height="76" transform="rotate(-90 1435.5 314.5)" stroke="black" stroke-dasharray="10 10"/>
</svg>
