<?xml version="1.0" encoding="UTF-8"?>
<svg version="1.1" xmlns="http://www.w3.org/2000/svg" width="512" height="512">
<path d="M0 0 C5.28 0 10.56 0 16 0 C16 5.61 16 11.22 16 17 C20.80375875 15.0311312 20.80375875 15.0311312 25.6027832 13.05078125 C28.55227212 11.85629156 30.7897612 11 34 11 C34.83986084 12.93467942 35.67168027 14.87285129 36.5 16.8125 C36.9640625 17.89144531 37.428125 18.97039063 37.90625 20.08203125 C39 23 39 23 39 26 C31.74 28.97 24.48 31.94 17 35 C17 46.22 17 57.44 17 69 C42.09027955 59.2155239 67.15651591 49.37277784 92.1875 39.4375 C93.40831268 38.95299377 94.62912537 38.46848755 95.88693237 37.96929932 C101.94497193 35.56491704 108.00280683 33.16001959 114.06054688 30.75488281 C123.59648091 26.96899548 133.13309511 23.18483965 142.67251587 19.40774536 C144.4862055 18.68931985 146.29966967 17.97032485 148.11288452 17.2507019 C150.59421942 16.26595393 153.07631174 15.28313892 155.55859375 14.30078125 C156.25809143 14.02265594 156.95758911 13.74453064 157.67828369 13.45797729 C163.41797741 11.1904704 169.19255294 9.11179893 175 7 C175 24.82 175 42.64 175 61 C170.00025661 63.49987169 165.35115986 65.76539052 160.1875 67.75 C159.08792969 68.17796875 157.98835938 68.6059375 156.85546875 69.046875 C154 70 154 70 151 70 C151 120.82 151 171.64 151 224 C166.51 224 182.02 224 198 224 C198 214.43 198 204.86 198 195 C193.05 195 188.1 195 183 195 C183 179.82 183 164.64 183 149 C218.64 149 254.28 149 291 149 C291 141.74 291 134.48 291 127 C283.74 127 276.48 127 269 127 C269 122.05 269 117.1 269 112 C276.26 112 283.52 112 291 112 C291 107.05 291 102.1 291 97 C283.74 97 276.48 97 269 97 C269 92.05 269 87.1 269 82 C276.26 82 283.52 82 291 82 C291 77.05 291 72.1 291 67 C296.28 67 301.56 67 307 67 C307 71.95 307 76.9 307 82 C314.26 82 321.52 82 329 82 C329 86.95 329 91.9 329 97 C321.74 97 314.48 97 307 97 C307 101.95 307 106.9 307 112 C314.26 112 321.52 112 329 112 C329 116.95 329 121.9 329 127 C321.74 127 314.48 127 307 127 C307 134.26 307 141.52 307 149 C324.16 149 341.32 149 359 149 C359 164.18 359 179.36 359 195 C354.05 195 349.1 195 344 195 C344 232.29 344 269.58 344 308 C348.95 308 353.9 308 359 308 C359 323.18 359 338.36 359 354 C354.05 354 349.1 354 344 354 C344 391.29 344 428.58 344 467 C353.9 467 363.8 467 374 467 C374 481.85 374 496.7 374 512 C359.15 512 344.3 512 329 512 C329 507.05 329 502.1 329 497 C338.9 497 348.8 497 359 497 C359 492.05 359 487.1 359 482 C199.94 482 40.88 482 -123 482 C-123 486.95 -123 491.9 -123 497 C21.21 497 165.42 497 314 497 C314 501.95 314 506.9 314 512 C164.84 512 15.68 512 -138 512 C-138 497.15 -138 482.3 -138 467 C-128.1 467 -118.2 467 -108 467 C-108 414.2 -108 361.4 -108 307 C-112.95 307 -117.9 307 -123 307 C-123 291.82 -123 276.64 -123 261 C-113.1 261 -103.2 261 -93 261 C-93 253.74 -93 246.48 -93 239 C-100.59 239 -108.18 239 -116 239 C-116 233.72 -116 228.44 -116 223 C-108.41 223 -100.82 223 -93 223 C-93 218.38 -93 213.76 -93 209 C-100.59 209 -108.18 209 -116 209 C-116 203.72 -116 198.44 -116 193 C-108.41 193 -100.82 193 -93 193 C-93 188.05 -93 183.1 -93 178 C-88.05 178 -83.1 178 -78 178 C-78 182.95 -78 187.9 -78 193 C-70.41 193 -62.82 193 -55 193 C-55 198.28 -55 203.56 -55 209 C-62.59 209 -70.18 209 -78 209 C-78 213.62 -78 218.24 -78 223 C-70.41 223 -62.82 223 -55 223 C-55 228.28 -55 233.56 -55 239 C-62.59 239 -70.18 239 -78 239 C-78 246.26 -78 253.52 -78 261 C-62.16 261 -46.32 261 -30 261 C-30 234.93 -30 208.86 -30 182 C-24.72 182 -19.44 182 -14 182 C-14 208.07 -14 234.14 -14 261 C17.02 261 48.04 261 80 261 C80 276.18 80 291.36 80 307 C75.05 307 70.1 307 65 307 C65.33 354.52 65.66 402.04 66 451 C69.63 448.69 73.26 446.38 77 444 C79.05811354 442.94381054 81.1407565 441.93133112 83.26171875 441.0078125 C84.31810547 440.52957031 85.37449219 440.05132812 86.46289062 439.55859375 C88.61954233 438.5997916 90.78108591 437.65192089 92.94726562 436.71484375 C100.40651107 433.30725214 105.01215236 429.46677714 110 423 C116.56140071 415.241587 122.12820169 410.14558997 132 407 C132.99 407 133.98 407 135 407 C134.505 244.145 134.505 244.145 134 78 C107.82532074 86.09905925 107.82532074 86.09905925 96.421875 105.01171875 C95.93436963 106.33623805 95.45473407 107.66387508 95 109 C97.78530656 112.08746013 100.35495493 114.3278752 103.98828125 116.3671875 C115.23787569 122.7578082 115.23787569 122.7578082 117.078125 128.171875 C117.06372125 131.35510337 116.78220092 134.37608373 116.30517578 137.52099609 C115.65593888 142.79487728 115.66413465 148.13060422 115.5 153.4375 C115.34242852 157.29210945 115.17061458 161.14593855 115 165 C109.72 165 104.44 165 99 165 C99.12761719 162.855 99.25523437 160.71 99.38671875 158.5 C99.47275573 156.39845634 99.53939162 154.29711586 99.60424805 152.19482422 C99.65924048 150.74502363 99.73407754 149.29582427 99.82983398 147.84814453 C100.53852914 138.92960048 100.53852914 138.92960048 96.60791016 131.25 C92.88835155 128.50430506 89.38688184 126.46229395 85 125 C84.75507813 125.83789062 84.51015625 126.67578125 84.2578125 127.5390625 C82.83833721 131.44482371 80.98068342 134.81003295 78.875 138.375 C76.956875 141.654375 76.956875 141.654375 75 145 C70.38 142.69 65.76 140.38 61 138 C61.86456874 133.67715628 62.60911552 131.53838006 64.73046875 127.8671875 C65.28669922 126.89523438 65.84292969 125.92328125 66.41601562 124.921875 C67.00060547 123.91640625 67.58519531 122.9109375 68.1875 121.875 C69.32765356 119.89370693 70.46697926 117.91193724 71.60546875 115.9296875 C72.16540527 114.95741211 72.7253418 113.98513672 73.30224609 112.98339844 C75.93429298 108.35820244 78.47320729 103.6833341 81 99 C49.61164464 111.19507483 18.29706398 123.57269333 -13 136 C-13.33 146.56 -13.66 157.12 -14 168 C-19.28 168 -24.56 168 -30 168 C-30.495 155.625 -30.495 155.625 -31 143 C-37.44923426 145.62710653 -37.44923426 145.62710653 -43.89379883 148.265625 C-44.69841553 148.59046875 -45.50303223 148.9153125 -46.33203125 149.25 C-47.15421143 149.58515625 -47.9763916 149.9203125 -48.82348633 150.265625 C-51 151 -51 151 -54 151 C-54 133.18 -54 115.36 -54 97 C-46.94625 94.2775 -46.94625 94.2775 -39.75 91.5 C-29.39683666 87.50377477 -19.05679817 83.48491277 -8.80371094 79.23632812 C-3.3235047 77 -3.3235047 77 0 77 C0 65.45 0 53.9 0 42 C-3.96 43.65 -7.92 45.3 -12 47 C-12.99 47 -13.98 47 -15 47 C-15.83986084 45.06532058 -16.67168027 43.12714871 -17.5 41.1875 C-18.19609375 39.56908203 -18.19609375 39.56908203 -18.90625 37.91796875 C-20 35 -20 35 -20 32 C-13.73 29.36 -7.46 26.72 -1 24 C-0.67 16.08 -0.34 8.16 0 0 Z M146.0625 35.5625 C145.41019409 35.8152066 144.75788818 36.06791321 144.08581543 36.32827759 C123.22083834 44.4169588 102.43953318 52.72033877 81.64214134 60.98079872 C69.84909 65.66483751 58.05115224 70.33641345 46.25 75 C45.38872498 75.34043335 44.52744995 75.6808667 43.64007568 76.03161621 C34.35784566 79.70051474 25.07421491 83.3658475 15.7890625 87.02734375 C6.52441265 90.68077783 -2.7390591 94.33717341 -12 98 C-12.67577087 98.26721863 -13.35154175 98.53443726 -14.04779053 98.80975342 C-18.30454872 100.49352161 -22.55913819 102.18266532 -26.8125 103.875 C-28.37025146 104.49169556 -28.37025146 104.49169556 -29.95947266 105.12084961 C-30.88679199 105.49089111 -31.81411133 105.86093262 -32.76953125 106.2421875 C-33.56979736 106.5604248 -34.37006348 106.87866211 -35.19458008 107.20654297 C-36.98337035 107.86242117 -36.98337035 107.86242117 -38 109 C-38.08651611 110.41570123 -38.10704904 111.835595 -38.09765625 113.25390625 C-38.09443359 114.10791016 -38.09121094 114.96191406 -38.08789062 115.84179688 C-38.07951172 116.73962891 -38.07113281 117.63746094 -38.0625 118.5625 C-38.05798828 119.46419922 -38.05347656 120.36589844 -38.04882812 121.29492188 C-38.03700225 123.53001314 -38.0205222 125.76497437 -38 128 C-27.5146085 124.08938665 -17.05409009 120.12105772 -6.625 116.0625 C-5.89177521 115.77742584 -5.15855042 115.49235168 -4.40310669 115.19863892 C16.95101986 106.89072119 38.23623332 98.40725702 59.53142738 89.94977379 C70.29779252 85.67389313 81.06811558 81.40812009 91.84182739 77.15078735 C94.40893668 76.13628798 96.97585154 75.12129806 99.54272461 74.10620117 C107.71681549 70.87428436 115.89284985 67.64739448 124.07234192 64.4291687 C128.11509137 62.83821353 132.15708563 61.24534507 136.19900513 59.65228271 C138.13683602 58.88914773 140.07504351 58.12696828 142.01364136 57.36578369 C144.67928528 56.3190924 147.34367659 55.26927247 150.0078125 54.21875 C150.80652267 53.90610199 151.60523285 53.59345398 152.42814636 53.27133179 C155.97670374 52.0725682 155.97670374 52.0725682 159 50 C159.08651611 48.58429877 159.10704904 47.164405 159.09765625 45.74609375 C159.09443359 44.89208984 159.09121094 44.03808594 159.08789062 43.15820312 C159.07951172 42.26037109 159.07113281 41.36253906 159.0625 40.4375 C159.05573242 39.08495117 159.05573242 39.08495117 159.04882812 37.70507812 C159.03700225 35.46998686 159.0205222 33.23502563 159 31 C154.82164275 31 149.96677842 34.04680466 146.0625 35.5625 Z M199 165 C199 169.62 199 174.24 199 179 C246.85 179 294.7 179 344 179 C344 174.38 344 169.76 344 165 C296.15 165 248.3 165 199 165 Z M214 195 C214 204.57 214 214.14 214 224 C218.95 224 223.9 224 229 224 C229 251.72 229 279.44 229 308 C234.61 308 240.22 308 246 308 C246 287.87 246 267.74 246 247 C262.83 247 279.66 247 297 247 C297 267.13 297 287.26 297 308 C307.56 308 318.12 308 329 308 C329 270.71 329 233.42 329 195 C291.05 195 253.1 195 214 195 Z M157 240 C158.93660892 244.84152229 161.11744881 247.65551915 164.625 251.3125 C165.16044434 251.8799292 165.69588867 252.4473584 166.24755859 253.03198242 C167.82370607 254.69585128 169.41042276 256.34897003 171 258 C171.825 258.86625 172.65 259.7325 173.5 260.625 C176.16531463 263.40301917 176.16531463 263.40301917 179 266 C179.66 266 180.32 266 181 266 C181.27199219 266.5878125 181.54398437 267.175625 181.82421875 267.78125 C182.97505621 269.95292999 184.2459182 271.61514169 185.8125 273.5 C193.40826467 283.58160719 195.34055574 295.51306478 197.33398438 307.66015625 C199.71673298 322.32606524 199.71673298 322.32606524 208.1875 334.125 C210.71398271 336.18490007 210.71398271 336.18490007 213 336 C213 304.32 213 272.64 213 240 C194.52 240 176.04 240 157 240 Z M151 261 C151 328.98 151 396.96 151 467 C171.46 467 191.92 467 213 467 C213 429.38 213 391.76 213 353 C209.04 351.35 205.08 349.7 201 348 C189.11718379 339.9059078 185.46144098 326.98274282 182.82421875 313.5390625 C182.27460642 310.58038993 181.76337323 307.61687917 181.26953125 304.6484375 C181.14932617 303.94960449 181.02912109 303.25077148 180.90527344 302.53076172 C180.58582666 300.63819882 180.29377434 298.74106839 180.00390625 296.84375 C177.13763533 285.86938975 170.69219802 279.02031713 162.75 271.375 C161.72025099 270.36179705 160.6915965 269.34748046 159.6640625 268.33203125 C155.73885745 263.60392624 155.73885745 263.60392624 151 261 Z M262 262 C262 277.18 262 292.36 262 308 C268.27 308 274.54 308 281 308 C281 292.82 281 277.64 281 262 C274.73 262 268.46 262 262 262 Z M-108 277 C-108 281.62 -108 286.24 -108 291 C-51.24 291 5.52 291 64 291 C64 286.38 64 281.76 64 277 C7.24 277 -49.52 277 -108 277 Z M-93 307 C-93 356.17 -93 405.34 -93 456 C-87.7974498 452.87846988 -83.57114392 449.45306936 -79.0625 445.4375 C-77.8549707 444.43879883 -77.8549707 444.43879883 -76.62304688 443.41992188 C-74.3508181 441.37394077 -72.57433886 439.62465591 -71 437 C-70.86567921 433.37056928 -71.81034319 430.39979738 -73 427 C-73.66666667 423.66666667 -74.33333333 420.33333333 -75 417 C-73.23050388 416.49528803 -71.45934777 415.99639315 -69.6875 415.5 C-68.70136719 415.2215625 -67.71523437 414.943125 -66.69921875 414.65625 C-64 414 -64 414 -61 414 C-60.65066406 415.21558594 -60.30132812 416.43117188 -59.94140625 417.68359375 C-59.4819414 419.26827863 -59.0222967 420.85291137 -58.5625 422.4375 C-58.33240234 423.23994141 -58.10230469 424.04238281 -57.86523438 424.86914062 C-57.01294138 428.74053247 -57.01294138 428.74053247 -55 432 C-53.14630389 432.08737645 -51.28932459 432.10698153 -49.43359375 432.09765625 C-48.30888672 432.09443359 -47.18417969 432.09121094 -46.02539062 432.08789062 C-44.84138672 432.07951172 -43.65738281 432.07113281 -42.4375 432.0625 C-41.24962891 432.05798828 -40.06175781 432.05347656 -38.83789062 432.04882812 C-35.89190588 432.03699686 -32.94594684 432.01906076 -30 432 C-30 436.95 -30 441.9 -30 447 C-31.90523437 446.89558594 -33.81046875 446.79117188 -35.7734375 446.68359375 C-38.3072119 446.5991346 -40.84107266 446.51723897 -43.375 446.4375 C-44.62667969 446.36208984 -45.87835938 446.28667969 -47.16796875 446.20898438 C-54.13666413 446.04480045 -58.27697979 446.46227831 -63.56640625 451.2265625 C-65.06731502 452.79598967 -66.54808544 454.38513997 -68 456 C-69.02700987 456.94345401 -70.06697853 457.87337237 -71.12890625 458.77734375 C-71.93199219 459.49019531 -72.73507813 460.20304688 -73.5625 460.9375 C-74.38878906 461.66839844 -75.21507813 462.39929688 -76.06640625 463.15234375 C-78.07010189 464.85878582 -78.07010189 464.85878582 -79 467 C-36.76 467 5.48 467 49 467 C49 414.2 49 361.4 49 307 C2.14 307 -44.72 307 -93 307 Z M229 324 C229 328.62 229 333.24 229 338 C266.95 338 304.9 338 344 338 C344 333.38 344 328.76 344 324 C306.05 324 268.1 324 229 324 Z M229 354 C229 391.29 229 428.58 229 467 C262 467 295 467 329 467 C329 429.71 329 392.42 329 354 C296 354 263 354 229 354 Z M126.11328125 428.8671875 C123.40416219 431.60134463 121.15177363 434.55138538 118.93359375 437.69140625 C111.93462404 446.0477519 102.81371858 449.63703728 93.046875 454.05664062 C86.04760331 457.30296207 79.66602335 460.68218359 74 466 C74 466.33 74 466.66 74 467 C94.13 467 114.26 467 135 467 C135 452.81 135 438.62 135 424 C130.71336621 424 129.20425229 426.07570726 126.11328125 428.8671875 Z " fill="#000000" transform="translate(138,0)"/>
<path d="M0 0 C17.82 0 35.64 0 54 0 C54 17.82 54 35.64 54 54 C36.18 54 18.36 54 0 54 C0 36.18 0 18.36 0 0 Z M16 16 C16 23.26 16 30.52 16 38 C23.26 38 30.52 38 38 38 C38 30.74 38 23.48 38 16 C30.74 16 23.48 16 16 16 Z " fill="#000000" transform="translate(89,352)"/>
<path d="M0 0 C17.49 0 34.98 0 53 0 C53 17.82 53 35.64 53 54 C35.51 54 18.02 54 0 54 C0 36.18 0 18.36 0 0 Z M16 16 C16 23.26 16 30.52 16 38 C22.93 38 29.86 38 37 38 C37 30.74 37 23.48 37 16 C30.07 16 23.14 16 16 16 Z " fill="#000000" transform="translate(383,383)"/>
<path d="M0 0 C17.49 0 34.98 0 53 0 C53 17.82 53 35.64 53 54 C35.51 54 18.02 54 0 54 C0 36.18 0 18.36 0 0 Z M16 16 C16 23.26 16 30.52 16 38 C22.93 38 29.86 38 37 38 C37 30.74 37 23.48 37 16 C30.07 16 23.14 16 16 16 Z " fill="#000000" transform="translate(172,176)"/>
<path d="M0 0 C4.95 0 9.9 0 15 0 C15 5.28 15 10.56 15 16 C10.05 16 5.1 16 0 16 C0 10.72 0 5.44 0 0 Z " fill="#000000" transform="translate(437,209)"/>
<path d="M0 0 C4.95 0 9.9 0 15 0 C15 5.28 15 10.56 15 16 C10.05 16 5.1 16 0 16 C0 10.72 0 5.44 0 0 Z " fill="#000000" transform="translate(407,209)"/>
</svg>
