<svg width="1950" height="959" viewBox="0 0 1950 959" fill="none" xmlns="http://www.w3.org/2000/svg">
<path d="M1036.5 250.5V60H1237V0.5H1949.5V317.5H1856V482H1665.5V894.5H209V958.5H0.5V472.5H1036.5V250.5Z" fill="white"/>
<path d="M116.063 820.818V847H112.995L98.7282 826.443H98.4725V847H95.302V820.818H98.3702L112.688 841.426H112.944V820.818H116.063Z" fill="black"/>
<path d="M0.5 736.5L0.5 892.5H211.5L211.5 736.5" stroke="black"/>
<path d="M160.5 892.5H211.154V889.334H160.5V892.5Z" fill="white" stroke="black"/>
<path d="M160.5 889.334C160.5 861.361 183.18 838.681 211.154 838.681V889.334" stroke="black" stroke-miterlimit="10"/>
<rect x="0.5" y="736.5" width="107" height="58" transform="rotate(-90 0.5 736.5)" stroke="black"/>
<path d="M28.5 736.5H58.5V734.625H28.5V736.5Z" fill="white" stroke="black"/>
<path d="M28.5 734.625C28.5 718.057 41.9325 704.625 58.5 704.625L58.5 734.625" stroke="black" stroke-miterlimit="10"/>
<path d="M21.3182 690.5L21.3182 667.227H24.1364L24.1364 678.773H24.4091L34.8636 667.227H38.5455L28.7727 677.727L38.5455 690.5H35.1364L27.0455 679.682L24.1364 682.955V690.5H21.3182Z" fill="black"/>
<rect x="58.5" y="736.5" width="107" height="58" transform="rotate(-90 58.5 736.5)" stroke="black"/>
<path d="M88.5 736.5H58.5V734.625H88.5V736.5Z" fill="white" stroke="black"/>
<path d="M88.5 734.625C88.5 718.057 75.0675 704.625 58.5 704.625L58.5 734.625" stroke="black" stroke-miterlimit="10"/>
<path d="M79.3182 690.5V667.227H82.1364V678.773H82.4091L92.8636 667.227H96.5455L86.7727 677.727L96.5455 690.5H93.1364L85.0455 679.682L82.1364 682.955V690.5H79.3182Z" fill="black"/>
<path d="M116.5 736.5H148.5V734.5H116.5V736.5Z" fill="white" stroke="black"/>
<path d="M116.5 734.5C116.5 716.828 130.828 702.5 148.5 702.5V734.5" stroke="black" stroke-miterlimit="10"/>
<rect x="116.5" y="736.5" width="107" height="32" transform="rotate(-90 116.5 736.5)" stroke="black"/>
<path d="M141.955 676.864C141.955 679.318 141.511 681.439 140.625 683.227C139.739 685.015 138.523 686.394 136.977 687.364C135.432 688.333 133.667 688.818 131.682 688.818C129.697 688.818 127.932 688.333 126.386 687.364C124.841 686.394 123.625 685.015 122.739 683.227C121.852 681.439 121.409 679.318 121.409 676.864C121.409 674.409 121.852 672.288 122.739 670.5C123.625 668.712 124.841 667.333 126.386 666.364C127.932 665.394 129.697 664.909 131.682 664.909C133.667 664.909 135.432 665.394 136.977 666.364C138.523 667.333 139.739 668.712 140.625 670.5C141.511 672.288 141.955 674.409 141.955 676.864ZM139.227 676.864C139.227 674.848 138.89 673.148 138.216 671.761C137.549 670.375 136.644 669.326 135.5 668.614C134.364 667.902 133.091 667.545 131.682 667.545C130.273 667.545 128.996 667.902 127.852 668.614C126.716 669.326 125.811 670.375 125.136 671.761C124.47 673.148 124.136 674.848 124.136 676.864C124.136 678.879 124.47 680.58 125.136 681.966C125.811 683.352 126.716 684.402 127.852 685.114C128.996 685.826 130.273 686.182 131.682 686.182C133.091 686.182 134.364 685.826 135.5 685.114C136.644 684.402 137.549 683.352 138.216 681.966C138.89 680.58 139.227 678.879 139.227 676.864Z" fill="black"/>
<path d="M68.5 596.682H45.2273V593.864H66V583.045H68.5V596.682Z" fill="black"/>
<rect x="0.5" y="629.5" width="78" height="116" transform="rotate(-90 0.5 629.5)" stroke="black"/>
<path d="M116.375 581.5L116.375 551.5H114.5L114.5 581.5H116.375Z" fill="white" stroke="black"/>
<path d="M114.5 581.5C97.9325 581.5 84.5 568.068 84.5 551.5H114.5" stroke="black" stroke-miterlimit="10"/>
<path d="M50.8182 523V499.727H53.6364V520.5H64.4545V523H50.8182Z" fill="black"/>
<rect x="0.5" y="551.5" width="78" height="116" transform="rotate(-90 0.5 551.5)" stroke="black"/>
<path d="M116.375 551.5V521.5H114.5V551.5H116.375Z" fill="white" stroke="black"/>
<path d="M114.5 521.5C97.9325 521.5 84.5 534.932 84.5 551.5H114.5" stroke="black" stroke-miterlimit="10"/>
<path d="M154.742 540.824H158.105L166.014 560.142H166.287L174.196 540.824H177.56V564.097H174.924V546.415H174.696L167.424 564.097H164.878L157.605 546.415H157.378V564.097H154.742V540.824Z" fill="black"/>
<path d="M116.5 629.5L116.5 473.5H211.5L211.5 629.5" stroke="black"/>
<rect x="211.5" y="629.5" width="78" height="103" transform="rotate(-90 211.5 629.5)" stroke="black"/>
<path d="M211.5 551.572V581.428H213.366V551.572H211.5Z" fill="white" stroke="black"/>
<path d="M213.366 581.428C229.854 581.428 243.221 568.06 243.221 551.572H213.366" stroke="black" stroke-miterlimit="10"/>
<path d="M259.775 603.688V580.415H262.593V591.96H262.866L273.32 580.415H277.002L267.23 590.915L277.002 603.688H273.593L265.502 592.869L262.593 596.142V603.688H259.775Z" fill="black"/>
<rect x="211.5" y="551.5" width="78" height="103" transform="rotate(-90 211.5 551.5)" stroke="black"/>
<path d="M211.5 520.572V550.428H213.366V520.572H211.5Z" fill="white" stroke="black"/>
<path d="M213.366 520.572C229.854 520.572 243.221 533.94 243.221 550.428H213.366" stroke="black" stroke-miterlimit="10"/>
<path d="M259.775 524.688V501.415H262.593V512.96H262.866L273.32 501.415H277.002L267.23 511.915L277.002 524.688H273.593L265.502 513.869L262.593 517.142V524.688H259.775Z" fill="black"/>
<rect x="314.5" y="629.5" width="156" height="103" transform="rotate(-90 314.5 629.5)" stroke="black"/>
<path d="M367.727 539.727H370.545V556.364C370.545 557.848 370.273 559.11 369.727 560.148C369.182 561.186 368.413 561.973 367.42 562.511C366.428 563.049 365.258 563.318 363.909 563.318C362.636 563.318 361.504 563.087 360.511 562.625C359.519 562.155 358.739 561.489 358.17 560.625C357.602 559.761 357.318 558.735 357.318 557.545H360.091C360.091 558.205 360.254 558.78 360.58 559.273C360.913 559.758 361.367 560.136 361.943 560.409C362.519 560.682 363.174 560.818 363.909 560.818C364.72 560.818 365.409 560.648 365.977 560.307C366.545 559.966 366.977 559.466 367.273 558.807C367.576 558.14 367.727 557.326 367.727 556.364V539.727Z" fill="black"/>
<path d="M314.5 629.5H364.5V626.375H314.5V629.5Z" fill="white" stroke="black"/>
<path d="M364.5 626.375C364.5 598.762 342.113 576.375 314.5 576.375V626.375" stroke="black" stroke-miterlimit="10"/>
<rect x="417.5" y="629.5" width="156" height="206" transform="rotate(-90 417.5 629.5)" stroke="black"/>
<path d="M513.636 536.727V560H510.818V536.727H513.636ZM523.73 560.239C522.73 560.239 521.83 560.04 521.028 559.642C520.227 559.244 519.585 558.699 519.102 558.006C518.619 557.312 518.355 556.523 518.31 555.636H520.355C520.435 556.426 520.793 557.08 521.429 557.597C522.071 558.108 522.838 558.364 523.73 558.364C524.446 558.364 525.082 558.196 525.639 557.861C526.202 557.526 526.642 557.065 526.96 556.48C527.284 555.889 527.446 555.222 527.446 554.477C527.446 553.716 527.278 553.037 526.943 552.44C526.614 551.838 526.159 551.364 525.58 551.017C525 550.67 524.338 550.494 523.594 550.489C523.06 550.483 522.511 550.565 521.949 550.736C521.386 550.901 520.923 551.114 520.56 551.375L518.582 551.136L519.639 542.545H528.707V544.42H521.412L520.798 549.568H520.901C521.259 549.284 521.707 549.048 522.247 548.861C522.787 548.673 523.349 548.58 523.935 548.58C525.003 548.58 525.955 548.835 526.79 549.347C527.631 549.852 528.29 550.545 528.767 551.426C529.25 552.307 529.491 553.312 529.491 554.443C529.491 555.557 529.241 556.551 528.741 557.426C528.247 558.295 527.565 558.983 526.696 559.489C525.827 559.989 524.838 560.239 523.73 560.239Z" fill="black"/>
<path d="M417.5 629.5H467.5V626.375H417.5V629.5Z" fill="white" stroke="black"/>
<path d="M467.5 626.375C467.5 598.762 445.113 576.375 417.5 576.375V626.375" stroke="black" stroke-miterlimit="10"/>
<rect x="623.5" y="629.5" width="156" height="206" transform="rotate(-90 623.5 629.5)" stroke="black"/>
<path d="M719.636 536.727V560H716.818V536.727H719.636ZM730.071 560.239C729.355 560.227 728.639 560.091 727.923 559.83C727.207 559.568 726.554 559.128 725.963 558.509C725.372 557.884 724.898 557.04 724.54 555.977C724.182 554.909 724.003 553.568 724.003 551.955C724.003 550.409 724.148 549.04 724.438 547.847C724.727 546.648 725.148 545.639 725.699 544.821C726.25 543.997 726.915 543.372 727.693 542.946C728.477 542.52 729.361 542.307 730.344 542.307C731.321 542.307 732.19 542.503 732.952 542.895C733.719 543.281 734.344 543.821 734.827 544.514C735.31 545.207 735.622 546.006 735.764 546.909H733.685C733.491 546.125 733.116 545.474 732.56 544.957C732.003 544.44 731.264 544.182 730.344 544.182C728.991 544.182 727.926 544.77 727.148 545.946C726.375 547.122 725.986 548.773 725.98 550.898H726.116C726.435 550.415 726.812 550.003 727.25 549.662C727.693 549.315 728.182 549.048 728.716 548.861C729.25 548.673 729.815 548.58 730.412 548.58C731.412 548.58 732.327 548.83 733.156 549.33C733.986 549.824 734.651 550.509 735.151 551.384C735.651 552.253 735.901 553.25 735.901 554.375C735.901 555.455 735.659 556.443 735.176 557.341C734.693 558.233 734.014 558.943 733.139 559.472C732.27 559.994 731.247 560.25 730.071 560.239ZM730.071 558.364C730.787 558.364 731.429 558.185 731.997 557.827C732.571 557.469 733.023 556.989 733.352 556.386C733.688 555.784 733.855 555.114 733.855 554.375C733.855 553.653 733.693 552.997 733.369 552.406C733.051 551.81 732.611 551.335 732.048 550.983C731.491 550.631 730.855 550.455 730.139 550.455C729.599 550.455 729.097 550.562 728.631 550.778C728.165 550.989 727.756 551.278 727.403 551.648C727.057 552.017 726.784 552.44 726.585 552.918C726.386 553.389 726.287 553.886 726.287 554.409C726.287 555.102 726.449 555.75 726.773 556.352C727.102 556.955 727.551 557.44 728.119 557.81C728.693 558.179 729.344 558.364 730.071 558.364Z" fill="black"/>
<path d="M623.5 629.5H673.5V626.375H623.5V629.5Z" fill="white" stroke="black"/>
<path d="M673.5 626.375C673.5 598.762 651.113 576.375 623.5 576.375V626.375" stroke="black" stroke-miterlimit="10"/>
<rect x="829.5" y="629.5" width="156" height="206" transform="rotate(-90 829.5 629.5)" stroke="black"/>
<path d="M926.136 537.227V560.5H923.318V537.227H926.136ZM931.321 560.5L939.128 545.057V544.92H930.128V543.045H941.31V545.023L933.537 560.5H931.321Z" fill="black"/>
<path d="M829.5 629.5H879.5V626.375H829.5V629.5Z" fill="white" stroke="black"/>
<path d="M879.5 626.375C879.5 598.762 857.113 576.375 829.5 576.375V626.375" stroke="black" stroke-miterlimit="10"/>
<path d="M309.636 804.727V828H306.818V804.727H309.636ZM320.412 810.545V828H318.298V812.761H318.196L313.935 815.591V813.443L318.298 810.545H320.412Z" fill="black"/>
<path d="M212.5 736.375H262.5V739.5H212.5V736.375Z" fill="white" stroke="black"/>
<path d="M262.5 739.5C262.5 767.113 240.113 789.5 212.5 789.5L212.5 739.5" stroke="black" stroke-miterlimit="10"/>
<rect x="211.5" y="892.5" width="156" height="206" transform="rotate(-90 211.5 892.5)" stroke="black"/>
<path d="M514.136 803.227V826.5H511.318V803.227H514.136ZM518.776 826.5V824.966L524.537 818.659C525.213 817.92 525.77 817.278 526.207 816.733C526.645 816.182 526.969 815.665 527.179 815.182C527.395 814.693 527.503 814.182 527.503 813.648C527.503 813.034 527.355 812.503 527.06 812.054C526.77 811.605 526.372 811.259 525.866 811.014C525.361 810.77 524.793 810.648 524.162 810.648C523.491 810.648 522.906 810.787 522.406 811.065C521.912 811.338 521.528 811.722 521.256 812.216C520.989 812.71 520.855 813.29 520.855 813.955H518.844C518.844 812.932 519.08 812.034 519.551 811.261C520.023 810.489 520.665 809.886 521.477 809.455C522.295 809.023 523.213 808.807 524.23 808.807C525.253 808.807 526.159 809.023 526.949 809.455C527.739 809.886 528.358 810.469 528.807 811.202C529.256 811.935 529.48 812.75 529.48 813.648C529.48 814.29 529.364 814.918 529.131 815.531C528.903 816.139 528.506 816.818 527.938 817.568C527.375 818.312 526.594 819.222 525.594 820.295L521.673 824.489V824.625H529.787V826.5H518.776Z" fill="black"/>
<path d="M418.5 736.375H468.5V739.5H418.5V736.375Z" fill="white" stroke="black"/>
<path d="M468.5 739.5C468.5 767.113 446.113 789.5 418.5 789.5V739.5" stroke="black" stroke-miterlimit="10"/>
<rect x="417.5" y="892.5" width="156" height="206" transform="rotate(-90 417.5 892.5)" stroke="black"/>
<path d="M719.636 802.727V826H716.818V802.727H719.636ZM730.173 826.239C729.048 826.239 728.045 826.045 727.165 825.659C726.29 825.273 725.594 824.736 725.077 824.048C724.565 823.355 724.287 822.551 724.241 821.636H726.389C726.435 822.199 726.628 822.685 726.969 823.094C727.31 823.497 727.756 823.81 728.307 824.031C728.858 824.253 729.469 824.364 730.139 824.364C730.889 824.364 731.554 824.233 732.134 823.972C732.713 823.71 733.168 823.347 733.497 822.881C733.827 822.415 733.991 821.875 733.991 821.261C733.991 820.619 733.832 820.054 733.514 819.565C733.196 819.071 732.73 818.685 732.116 818.406C731.503 818.128 730.753 817.989 729.866 817.989H728.469V816.114H729.866C730.56 816.114 731.168 815.989 731.69 815.739C732.219 815.489 732.631 815.136 732.926 814.682C733.227 814.227 733.378 813.693 733.378 813.08C733.378 812.489 733.247 811.974 732.986 811.537C732.724 811.099 732.355 810.759 731.878 810.514C731.406 810.27 730.849 810.148 730.207 810.148C729.605 810.148 729.037 810.259 728.503 810.48C727.974 810.696 727.543 811.011 727.207 811.426C726.872 811.835 726.69 812.33 726.662 812.909H724.616C724.651 811.994 724.926 811.193 725.443 810.506C725.96 809.812 726.636 809.273 727.472 808.886C728.313 808.5 729.236 808.307 730.241 808.307C731.321 808.307 732.247 808.526 733.02 808.963C733.793 809.395 734.386 809.966 734.801 810.676C735.216 811.386 735.423 812.153 735.423 812.977C735.423 813.96 735.165 814.798 734.648 815.491C734.136 816.185 733.44 816.665 732.56 816.932V817.068C733.662 817.25 734.523 817.719 735.142 818.474C735.761 819.224 736.071 820.153 736.071 821.261C736.071 822.21 735.813 823.062 735.295 823.818C734.784 824.568 734.085 825.159 733.199 825.591C732.313 826.023 731.304 826.239 730.173 826.239Z" fill="black"/>
<path d="M624.5 736.375H674.5V739.5H624.5V736.375Z" fill="white" stroke="black"/>
<path d="M674.5 739.5C674.5 767.113 652.113 789.5 624.5 789.5V739.5" stroke="black" stroke-miterlimit="10"/>
<rect x="623.5" y="892.5" width="156" height="206" transform="rotate(-90 623.5 892.5)" stroke="black"/>
<path d="M925.636 802.727V826H922.818V802.727H925.636ZM929.866 822.42V820.682L937.537 808.545H938.798V811.239H937.946L932.151 820.409V820.545H942.48V822.42H929.866ZM938.082 826V821.892V821.082V808.545H940.094V826H938.082Z" fill="black"/>
<path d="M830.5 736.375H880.5V739.5H830.5V736.375Z" fill="white" stroke="black"/>
<path d="M880.5 739.5C880.5 767.113 858.113 789.5 830.5 789.5V739.5" stroke="black" stroke-miterlimit="10"/>
<rect x="829.5" y="892.5" width="156" height="206" transform="rotate(-90 829.5 892.5)" stroke="black"/>
<path d="M1035.5 629.5V892.5L1437.5 892.5V629.5" stroke="black"/>
<path d="M1242.73 766C1242.48 765.235 1242.15 764.549 1241.74 763.943C1241.34 763.33 1240.86 762.807 1240.3 762.375C1239.74 761.943 1239.11 761.614 1238.41 761.386C1237.7 761.159 1236.93 761.045 1236.09 761.045C1234.71 761.045 1233.46 761.402 1232.33 762.114C1231.2 762.826 1230.3 763.875 1229.64 765.261C1228.97 766.648 1228.64 768.348 1228.64 770.364C1228.64 772.379 1228.97 774.08 1229.65 775.466C1230.32 776.852 1231.23 777.902 1232.39 778.614C1233.54 779.326 1234.83 779.682 1236.27 779.682C1237.61 779.682 1238.78 779.398 1239.8 778.83C1240.82 778.254 1241.61 777.443 1242.18 776.398C1242.76 775.345 1243.05 774.106 1243.05 772.682L1243.91 772.864H1236.91V770.364H1245.77V772.864C1245.77 774.78 1245.36 776.447 1244.55 777.864C1243.73 779.28 1242.61 780.379 1241.18 781.159C1239.76 781.932 1238.12 782.318 1236.27 782.318C1234.21 782.318 1232.4 781.833 1230.84 780.864C1229.29 779.894 1228.08 778.515 1227.2 776.727C1226.34 774.939 1225.91 772.818 1225.91 770.364C1225.91 768.523 1226.16 766.867 1226.65 765.398C1227.15 763.92 1227.85 762.663 1228.76 761.625C1229.67 760.587 1230.75 759.792 1231.99 759.239C1233.23 758.686 1234.6 758.409 1236.09 758.409C1237.32 758.409 1238.46 758.595 1239.52 758.966C1240.59 759.33 1241.54 759.848 1242.38 760.523C1243.22 761.189 1243.92 761.989 1244.48 762.92C1245.04 763.845 1245.42 764.871 1245.64 766H1242.73Z" fill="black"/>
<path d="M1437.5 629.5V411.5L1236.5 411.5V499.778" stroke="black"/>
<path d="M1331.94 563.498V540.225H1345.9V542.725H1334.76V550.589H1344.85V553.089H1334.76V563.498H1331.94Z" fill="black"/>
<path d="M1126.82 395V371.727H1129.64V382.091H1142.05V371.727H1144.86V395H1142.05V384.591H1129.64V395H1126.82Z" fill="black"/>
<path d="M1035.5 629.5L1035.5 57.5H1236.5L1236.5 312" stroke="black"/>
<rect x="1142.5" y="270.5" width="16" height="94" transform="rotate(-90 1142.5 270.5)" stroke="black"/>
<rect x="1142.5" y="254.5" width="16" height="94" transform="rotate(-90 1142.5 254.5)" stroke="black"/>
<rect x="1142.5" y="238.5" width="16" height="94" transform="rotate(-90 1142.5 238.5)" stroke="black"/>
<rect x="1142.5" y="222.5" width="16" height="94" transform="rotate(-90 1142.5 222.5)" stroke="black"/>
<rect x="1142.5" y="206.5" width="16" height="94" transform="rotate(-90 1142.5 206.5)" stroke="black"/>
<rect x="1142.5" y="190.5" width="16" height="94" transform="rotate(-90 1142.5 190.5)" stroke="black"/>
<path d="M1129.5 190.5V174.5H1104.5" stroke="black"/>
<rect x="1142.5" y="174.5" width="16" height="94" transform="rotate(-90 1142.5 174.5)" stroke="black"/>
<path d="M1106 174.5H1129.5V158.5H1082.5" stroke="black"/>
<rect x="1142.5" y="158.5" width="16" height="94" transform="rotate(-90 1142.5 158.5)" stroke="black"/>
<path d="M1082.5 158.5L1129.5 158.5V142.5L1058 142.5" stroke="black"/>
<rect x="1142.5" y="142.5" width="16" height="94" transform="rotate(-90 1142.5 142.5)" stroke="black"/>
<path d="M1035.5 126.5L1129.5 126.5V142.5L1057.5 142.5" stroke="black"/>
<rect x="1142.5" y="142.5" width="16" height="94" transform="rotate(-90 1142.5 142.5)" stroke="black"/>
<rect x="1035.5" y="126.5" width="16" height="94" transform="rotate(-90 1035.5 126.5)" stroke="black"/>
<path d="M1035.5 126.5L1129.5 126.5V142.5L1058.5 142.5" stroke="black"/>
<path d="M1129 191L1035 126.5" stroke="black" stroke-dasharray="10 10"/>
<path d="M1035.5 110.5V57.5L1236.5 57.5V126.5L1142.5 126.5V110.5L1035.5 110.5Z" stroke="black"/>
<path d="M1197.5 82.5H1198.5V81.5H1197.5V82.5ZM1082.5 82.5V81.5H1081.5V82.5H1082.5ZM1082.5 160.679L1088.27 150.679H1076.73L1082.5 160.679ZM1197.5 300.5H1198.5V82.5H1197.5H1196.5V300.5H1197.5ZM1197.5 82.5V81.5L1082.5 81.5V82.5V83.5L1197.5 83.5V82.5ZM1082.5 82.5H1081.5V151.679H1082.5H1083.5V82.5H1082.5Z" fill="black"/>
<rect x="1437.5" y="892.5" width="263" height="228" transform="rotate(-90 1437.5 892.5)" stroke="black"/>
<path d="M1543.82 770V746.728H1557.86V749.228H1546.64V757.091H1557.14V759.591H1546.64V767.5H1558.05V770H1543.82Z" fill="black"/>
<path d="M1437.5 629.5V699.5H1441.88V629.5H1437.5Z" fill="white" stroke="black"/>
<path d="M1441.88 699.5C1480.53 699.5 1511.88 668.158 1511.88 629.5H1441.88" stroke="black" stroke-miterlimit="10"/>
<path d="M1665.5 804.5V716.03H1662.74V804.5H1665.5Z" fill="white" stroke="black"/>
<path d="M1665.5 760.265H1662.74M1662.74 760.265C1638.31 760.265 1618.5 740.459 1618.5 716.03H1662.74M1662.74 760.265C1638.31 760.265 1618.5 780.071 1618.5 804.5H1662.74" stroke="black" stroke-miterlimit="10"/>
<rect x="1437.5" y="629.5" width="218" height="228" transform="rotate(-90 1437.5 629.5)" stroke="black"/>
<path d="M1549.5 532.5H1542.32V509.227H1549.82C1552.08 509.227 1554.01 509.693 1555.61 510.625C1557.22 511.549 1558.45 512.879 1559.31 514.614C1560.16 516.341 1560.59 518.409 1560.59 520.818C1560.59 523.242 1560.16 525.33 1559.3 527.08C1558.43 528.822 1557.17 530.163 1555.52 531.102C1553.87 532.034 1551.86 532.5 1549.5 532.5ZM1545.14 530H1549.32C1551.24 530 1552.84 529.629 1554.1 528.886C1555.37 528.144 1556.31 527.087 1556.93 525.716C1557.55 524.345 1557.86 522.712 1557.86 520.818C1557.86 518.939 1557.56 517.322 1556.94 515.966C1556.33 514.602 1555.41 513.557 1554.19 512.83C1552.97 512.095 1551.45 511.727 1549.64 511.727H1545.14V530Z" fill="black"/>
<path d="M1665.5 481.5V411.5H1661.12V481.5H1665.5Z" fill="white" stroke="black"/>
<path d="M1661.12 481.5C1622.47 481.5 1591.12 450.158 1591.12 411.5L1661.12 411.5" stroke="black" stroke-miterlimit="10"/>
<rect x="1665.5" y="481.5" width="164" height="191" transform="rotate(-90 1665.5 481.5)" stroke="black"/>
<path d="M1665.5 317.5V387.5H1669.88V317.5H1665.5Z" fill="white" stroke="black"/>
<path d="M1669.88 387.5C1708.53 387.5 1739.88 356.158 1739.88 317.5H1669.88" stroke="black" stroke-miterlimit="10"/>
<path d="M1768.55 395H1765.73C1765.56 394.189 1765.27 393.477 1764.85 392.864C1764.44 392.25 1763.94 391.735 1763.35 391.318C1762.77 390.894 1762.12 390.576 1761.41 390.364C1760.7 390.152 1759.95 390.045 1759.18 390.045C1757.77 390.045 1756.5 390.402 1755.35 391.114C1754.22 391.826 1753.31 392.875 1752.64 394.261C1751.97 395.648 1751.64 397.348 1751.64 399.364C1751.64 401.379 1751.97 403.08 1752.64 404.466C1753.31 405.852 1754.22 406.902 1755.35 407.614C1756.5 408.326 1757.77 408.682 1759.18 408.682C1759.95 408.682 1760.7 408.576 1761.41 408.364C1762.12 408.152 1762.77 407.837 1763.35 407.42C1763.94 406.996 1764.44 406.477 1764.85 405.864C1765.27 405.242 1765.56 404.53 1765.73 403.727H1768.55C1768.33 404.917 1767.95 405.981 1767.39 406.92C1766.83 407.86 1766.13 408.659 1765.3 409.318C1764.46 409.97 1763.53 410.466 1762.49 410.807C1761.46 411.148 1760.36 411.318 1759.18 411.318C1757.2 411.318 1755.43 410.833 1753.89 409.864C1752.34 408.894 1751.13 407.515 1750.24 405.727C1749.35 403.939 1748.91 401.818 1748.91 399.364C1748.91 396.909 1749.35 394.788 1750.24 393C1751.13 391.212 1752.34 389.833 1753.89 388.864C1755.43 387.894 1757.2 387.409 1759.18 387.409C1760.36 387.409 1761.46 387.58 1762.49 387.92C1763.53 388.261 1764.46 388.761 1765.3 389.42C1766.13 390.072 1766.83 390.867 1767.39 391.807C1767.95 392.739 1768.33 393.803 1768.55 395Z" fill="black"/>
<path d="M1236.5 57.5V158.5L1665.5 158.5V57.5" stroke="black"/>
<rect x="1236.5" y="73.5" width="16" height="429" transform="rotate(-90 1236.5 73.5)" stroke="black" stroke-dasharray="10 10"/>
<rect x="1236.5" y="57.5" width="57" height="429" transform="rotate(-90 1236.5 57.5)" stroke="black" stroke-dasharray="10 10"/>
<path d="M1498.5 158.5H1586.97V155.735H1498.5V158.5Z" fill="white" stroke="black"/>
<path d="M1542.74 158.5V155.735M1542.74 155.735C1542.74 131.306 1562.54 111.5 1586.97 111.5V155.735M1542.74 155.735C1542.74 131.306 1522.93 111.5 1498.5 111.5V155.735" stroke="black" stroke-miterlimit="10"/>
<path d="M1278.5 158.5H1366.97V155.735H1278.5V158.5Z" fill="white" stroke="black"/>
<path d="M1322.74 158.5V155.735M1322.74 155.735C1322.74 131.306 1342.54 111.5 1366.97 111.5V155.735M1322.74 155.735C1322.74 131.306 1302.93 111.5 1278.5 111.5V155.735" stroke="black" stroke-miterlimit="10"/>
<path d="M1418.77 119H1415.82L1424.36 95.7273H1427.27L1435.82 119H1432.86L1425.91 99.4091H1425.73L1418.77 119ZM1419.86 109.909H1431.77V112.409H1419.86V109.909Z" fill="black"/>
<path d="M1329.32 301.5V278.227H1337.45C1339.08 278.227 1340.41 278.508 1341.47 279.068C1342.52 279.621 1343.3 280.367 1343.82 281.307C1344.33 282.239 1344.59 283.273 1344.59 284.409C1344.59 285.409 1344.41 286.235 1344.06 286.886C1343.71 287.538 1343.25 288.053 1342.67 288.432C1342.1 288.811 1341.48 289.091 1340.82 289.273V289.5C1341.53 289.545 1342.25 289.795 1342.97 290.25C1343.69 290.705 1344.29 291.356 1344.77 292.205C1345.26 293.053 1345.5 294.091 1345.5 295.318C1345.5 296.485 1345.23 297.534 1344.7 298.466C1344.17 299.398 1343.34 300.136 1342.19 300.682C1341.05 301.227 1339.56 301.5 1337.73 301.5H1329.32ZM1332.14 299H1337.73C1339.57 299 1340.88 298.644 1341.65 297.932C1342.43 297.212 1342.82 296.341 1342.82 295.318C1342.82 294.53 1342.62 293.803 1342.22 293.136C1341.81 292.462 1341.24 291.924 1340.5 291.523C1339.76 291.114 1338.88 290.909 1337.86 290.909H1332.14V299ZM1332.14 288.455H1337.36C1338.21 288.455 1338.98 288.288 1339.66 287.955C1340.35 287.621 1340.89 287.152 1341.3 286.545C1341.7 285.939 1341.91 285.227 1341.91 284.409C1341.91 283.386 1341.55 282.519 1340.84 281.807C1340.13 281.087 1339 280.727 1337.45 280.727H1332.14V288.455Z" fill="black"/>
<path d="M1543.32 303.5V280.227H1551.45C1553.08 280.227 1554.41 280.508 1555.47 281.068C1556.52 281.621 1557.3 282.367 1557.82 283.307C1558.33 284.239 1558.59 285.273 1558.59 286.409C1558.59 287.409 1558.41 288.235 1558.06 288.886C1557.71 289.538 1557.25 290.053 1556.67 290.432C1556.1 290.811 1555.48 291.091 1554.82 291.273V291.5C1555.53 291.545 1556.25 291.795 1556.97 292.25C1557.69 292.705 1558.29 293.356 1558.77 294.205C1559.26 295.053 1559.5 296.091 1559.5 297.318C1559.5 298.485 1559.23 299.534 1558.7 300.466C1558.17 301.398 1557.34 302.136 1556.19 302.682C1555.05 303.227 1553.56 303.5 1551.73 303.5H1543.32ZM1546.14 301H1551.73C1553.57 301 1554.88 300.644 1555.65 299.932C1556.43 299.212 1556.82 298.341 1556.82 297.318C1556.82 296.53 1556.62 295.803 1556.22 295.136C1555.81 294.462 1555.24 293.924 1554.5 293.523C1553.76 293.114 1552.88 292.909 1551.86 292.909H1546.14V301ZM1546.14 290.455H1551.36C1552.21 290.455 1552.98 290.288 1553.66 289.955C1554.35 289.621 1554.89 289.152 1555.3 288.545C1555.7 287.939 1555.91 287.227 1555.91 286.409C1555.91 285.386 1555.55 284.519 1554.84 283.807C1554.13 283.087 1553 282.727 1551.45 282.727H1546.14V290.455Z" fill="black"/>
<path d="M1236.5 411.5L1665.5 411.5V316.5M1665.5 158.5L1236.5 158.5V316.5" stroke="black"/>
<path d="M1665.5 317.5L1856.5 317.5V57.5L1665.5 57.5" stroke="black"/>
<path d="M1751.32 188.5V165.227H1759.45C1761.08 165.227 1762.41 165.508 1763.47 166.068C1764.52 166.621 1765.3 167.367 1765.82 168.307C1766.33 169.239 1766.59 170.273 1766.59 171.409C1766.59 172.409 1766.41 173.235 1766.06 173.886C1765.71 174.538 1765.25 175.053 1764.67 175.432C1764.1 175.811 1763.48 176.091 1762.82 176.273V176.5C1763.53 176.545 1764.25 176.795 1764.97 177.25C1765.69 177.705 1766.29 178.356 1766.77 179.205C1767.26 180.053 1767.5 181.091 1767.5 182.318C1767.5 183.485 1767.23 184.534 1766.7 185.466C1766.17 186.398 1765.34 187.136 1764.19 187.682C1763.05 188.227 1761.56 188.5 1759.73 188.5H1751.32ZM1754.14 186H1759.73C1761.57 186 1762.88 185.644 1763.65 184.932C1764.43 184.212 1764.82 183.341 1764.82 182.318C1764.82 181.53 1764.62 180.803 1764.22 180.136C1763.81 179.462 1763.24 178.924 1762.5 178.523C1761.76 178.114 1760.88 177.909 1759.86 177.909H1754.14V186ZM1754.14 175.455H1759.36C1760.21 175.455 1760.98 175.288 1761.66 174.955C1762.35 174.621 1762.89 174.152 1763.3 173.545C1763.7 172.939 1763.91 172.227 1763.91 171.409C1763.91 170.386 1763.55 169.519 1762.84 168.807C1762.13 168.087 1761 167.727 1759.45 167.727H1754.14V175.455Z" fill="black"/>
<path d="M1856.5 130.029V218.5H1859.26V130.029H1856.5Z" fill="white" stroke="black"/>
<path d="M1856.5 174.265H1859.26M1859.26 174.265C1883.69 174.265 1903.5 194.071 1903.5 218.5H1859.26M1859.26 174.265C1883.69 174.265 1903.5 154.458 1903.5 130.029H1859.26" stroke="black" stroke-miterlimit="10"/>
<rect x="1855.5" y="314.5" width="257" height="76" transform="rotate(-90 1855.5 314.5)" stroke="black" stroke-dasharray="10 10"/>
<rect x="1931.5" y="314.5" width="257" height="18" transform="rotate(-90 1931.5 314.5)" stroke="black" stroke-dasharray="10 10"/>
<path d="M1895.77 186H1892.82L1901.36 162.727H1904.27L1912.82 186H1909.86L1902.91 166.409H1902.73L1895.77 186ZM1896.86 176.909H1908.77V179.409H1896.86V176.909Z" fill="black"/>
<rect x="0.5" y="958.5" width="66" height="211" transform="rotate(-90 0.5 958.5)" stroke="black" stroke-dasharray="40 40"/>
<path d="M98.8277 938.971V912.79H107.674C109.728 912.79 111.407 913.16 112.711 913.902C114.024 914.635 114.995 915.628 115.626 916.881C116.257 918.133 116.572 919.531 116.572 921.074C116.572 922.616 116.257 924.018 115.626 925.28C115.004 926.541 114.041 927.547 112.737 928.297C111.433 929.038 109.762 929.409 107.725 929.409H101.384V926.596H107.623C109.029 926.596 110.159 926.354 111.011 925.868C111.863 925.382 112.481 924.726 112.865 923.899C113.257 923.064 113.453 922.122 113.453 921.074C113.453 920.025 113.257 919.088 112.865 918.261C112.481 917.434 111.859 916.787 110.998 916.318C110.137 915.841 108.995 915.602 107.572 915.602H101.998V938.971H98.8277Z" fill="black"/>
</svg>
