<?xml version="1.0" encoding="UTF-8"?>
<svg id="Layer_1" xmlns="http://www.w3.org/2000/svg" version="1.1" viewBox="0 0 64 64">
  <!-- Generator: Adobe Illustrator 29.5.1, SVG Export Plug-In . SVG Version: 2.1.0 Build 141)  -->
  <defs>
    <style>
      .st0 {
        fill: #70cddd;
      }

      .st0, .st1, .st2 {
        stroke: #010101;
        stroke-miterlimit: 10;
        stroke-width: .75px;
      }

      .st1 {
        fill: #1cb24b;
      }

      .st3, .st4, .st5 {
        fill: #ee8422;
      }

      .st6, .st4, .st5 {
        isolation: isolate;
      }

      .st4 {
        font-size: 14.55px;
      }

      .st4, .st5 {
        font-family: Impact, Impact;
      }

      .st7 {
        fill: #f7ec26;
      }

      .st8 {
        fill: #010101;
      }

      .st2 {
        fill: #c8c7c6;
      }

      .st5 {
        font-size: 16.41px;
      }
    </style>
  </defs>
  <g id="Layer_11" data-name="Layer_1">
    <g id="Layer_2">
      <path class="st1" d="M2.84,52.62l3.89-22.77c.11-.64.5-1.19,1.06-1.5l10.79-6.07c.65-.36,1.43-.37,2.08,0l10.89,6c.65.36,1.44.35,2.09-.01l10.55-5.97c.64-.36,1.42-.37,2.07-.02l10.97,5.95c.57.31.97.86,1.09,1.5l4.13,23.08c.3,1.66-1.36,3-2.92,2.35l-11.26-4.66c-.54-.22-1.15-.22-1.69.02l-12.96,5.75c-.55.24-1.17.25-1.72,0l-13.46-5.84c-.53-.23-1.13-.24-1.67-.02l-11.02,4.54c-1.55.64-3.21-.68-2.92-2.34h0Z"/>
      <path class="st2" d="M4.87,40.76l1.86-10.91c.11-.64.5-1.19,1.06-1.5l10.79-6.07c.65-.36,1.43-.37,2.08,0l10.89,6c.65.36,1.44.35,2.09-.01l-.45,8c-3.09,1.39-9.74-3.3-14.21-2.5-3.98.71-6.8,3.33-9.34,4.83-2.48,1.46-4.83,2.52-4.77,2.18h0Z"/>
      <path class="st0" d="M32.66,28.53l11.55-6.25c.64-.36,1.42-.37,2.07-.02l10.97,5.95c.57.31.97.86,1.09,1.5l4.13,23.08c.3,1.66-1.36,3-2.92,2.35l-11.26-4.66c-.54-.22-14.56,5.68-15.09,5.91,0,0-.99-27.61-.53-27.87h0Z"/>
      <polygon class="st7" points="5.1 40.27 18.79 32.43 32.61 35.6 33.16 28.66 34.11 28.13 34.11 38.36 32.55 37.8 25.47 35.89 24.02 52.66 22.22 51.91 23.72 35.39 18.89 34.2 4.66 42.73 5.1 40.27"/>
      <polygon class="st8" points="19.49 22.01 18.46 50.43 17.73 50.26 19.49 22.01"/>
      <polygon class="st8" points="45.23 22.01 47.49 50.33 46.59 50.51 45.23 22.01"/>
      <polygon class="st8" points="32.66 28.53 32.66 56.45 33.19 56.41 32.66 28.53"/>
      <path class="st3" d="M21.4,3.39c-5.5,0-9.97,4.46-9.97,9.97,0,2.81-.4,19.37,1.47,21.18,1.79,1.74,5.8-11.21,8.5-11.21,5.5,0,9.97-4.46,9.97-9.97S26.9,3.39,21.4,3.39h0ZM21.38,17.98c-2.11,0-3.81-1.71-3.81-3.81s1.71-3.81,3.81-3.81,3.81,1.71,3.81,3.81-1.71,3.81-3.81,3.81Z"/>
      <g class="st6">
        <g class="st6">
          <text class="st4" transform="translate(20.8 33.01)"><tspan x="0" y="0">oint</tspan></text>
        </g>
      </g>
      <g class="st6">
        <g class="st6">
          <text class="st5" transform="translate(33.64 49.36)"><tspan x="0" y="0">Map</tspan></text>
        </g>
      </g>
    </g>
  </g>
</svg>